<?xml version="1.0" encoding="utf-8"?>
<!-- Generator: Adobe Illustrator 22.1.0, SVG Export Plug-In . SVG Version: 6.00 Build 0)  -->
<svg version="1.1" id="Layer_2" xmlns="http://www.w3.org/2000/svg" xmlns:xlink="http://www.w3.org/1999/xlink" x="0px" y="0px"
	 width="203.6px" height="52px" viewBox="0 0 203.6 52" style="enable-background:new 0 0 203.6 52;" xml:space="preserve">
<style type="text/css">
	.st0{fill:#00739D;}
</style>
<g>
	<path class="st0" d="M21.1,12.6h-8.4v22.6h-3V12.6H1.3V9.8h19.8V12.6z"/>
	<path class="st0" d="M21.3,22.4c0-0.8,0-1.5-0.1-2.2c0-0.7-0.1-1.3-0.1-1.8h2.7c0,0.5,0,0.9,0,1.4c0,0.5,0,0.9,0,1.4h0.1
		c0.2-0.4,0.5-0.8,0.8-1.2c0.3-0.4,0.8-0.7,1.2-1c0.5-0.3,1-0.5,1.6-0.7c0.6-0.2,1.2-0.3,1.9-0.3c0.2,0,0.4,0,0.6,0s0.4,0.1,0.6,0.1
		L30.5,21c-0.5-0.1-1-0.2-1.5-0.2c-1.7,0-3,0.6-3.7,1.7c-0.8,1.1-1.2,2.6-1.2,4.6v8.2h-2.8V22.4z"/>
	<path class="st0" d="M34,20.6c0.9-0.9,1.9-1.5,3.1-2c1.2-0.4,2.4-0.6,3.6-0.6c2.5,0,4.3,0.6,5.4,1.8c1.1,1.2,1.7,3,1.7,5.3v7.2
		c0,0.5,0,1,0.1,1.5s0.1,1,0.2,1.4h-2.7c-0.1-0.4-0.1-0.8-0.2-1.3c0-0.5,0-0.9,0-1.2H45c-0.6,0.9-1.3,1.6-2.2,2.1
		c-0.9,0.5-2,0.8-3.3,0.8c-0.9,0-1.7-0.1-2.4-0.3c-0.8-0.2-1.4-0.5-2-1c-0.6-0.4-1-0.9-1.3-1.6c-0.3-0.6-0.5-1.3-0.5-2.2
		c0-1.4,0.4-2.5,1.1-3.3c0.7-0.8,1.6-1.4,2.7-1.8c1.1-0.4,2.2-0.6,3.4-0.7c1.2-0.1,2.4-0.1,3.4-0.1h1.1v-0.5c0-1.2-0.4-2.1-1.1-2.8
		c-0.7-0.6-1.8-0.9-3.1-0.9c-0.9,0-1.8,0.1-2.7,0.4c-0.9,0.3-1.6,0.8-2.3,1.4L34,20.6z M42.1,27.1c-1.8,0-3.2,0.3-4.3,0.8
		c-1.1,0.5-1.6,1.3-1.6,2.5c0,1.1,0.4,1.8,1.1,2.2c0.7,0.4,1.6,0.7,2.6,0.7c0.8,0,1.5-0.1,2.1-0.4c0.6-0.3,1.1-0.6,1.5-1.1
		c0.4-0.5,0.7-1,0.9-1.6c0.2-0.6,0.3-1.3,0.4-2v-1.1H42.1z"/>
	<path class="st0" d="M52.8,11.8c0-0.5,0.2-1,0.6-1.4s0.9-0.6,1.5-0.6s1.1,0.2,1.5,0.6c0.4,0.4,0.6,0.9,0.6,1.4
		c0,0.6-0.2,1.1-0.6,1.5c-0.4,0.4-0.9,0.6-1.5,0.6c-0.6,0-1.1-0.2-1.5-0.6C53,12.9,52.8,12.4,52.8,11.8z M53.5,18.4h2.8v16.8h-2.8
		V18.4z"/>
	<path class="st0" d="M62.2,22.4c0-0.8,0-1.5-0.1-2.2c0-0.7-0.1-1.3-0.1-1.8h2.7c0,0.5,0,0.9,0,1.4c0,0.5,0,0.9,0,1.4h0.1
		c0.2-0.4,0.5-0.8,0.8-1.2c0.3-0.4,0.8-0.7,1.2-1c0.5-0.3,1-0.5,1.6-0.7c0.6-0.2,1.2-0.3,1.9-0.3c1.1,0,2.1,0.2,2.9,0.5
		c0.8,0.3,1.5,0.8,2,1.4c0.5,0.6,0.9,1.3,1.2,2.2c0.3,0.8,0.4,1.8,0.4,2.8v10.4H74V25.1c0-1.4-0.3-2.5-0.9-3.3
		c-0.6-0.8-1.6-1.2-2.9-1.2c-0.9,0-1.7,0.2-2.4,0.5c-0.7,0.3-1.2,0.8-1.6,1.3c-0.4,0.6-0.7,1.3-0.9,2S65,26.1,65,27v8.2h-2.8V22.4z"
		/>
	<path class="st0" d="M82.1,11.8c0-0.5,0.2-1,0.6-1.4s0.9-0.6,1.5-0.6s1.1,0.2,1.5,0.6c0.4,0.4,0.6,0.9,0.6,1.4
		c0,0.6-0.2,1.1-0.6,1.5c-0.4,0.4-0.9,0.6-1.5,0.6c-0.6,0-1.1-0.2-1.5-0.6C82.3,12.9,82.1,12.4,82.1,11.8z M82.8,18.4h2.8v16.8h-2.8
		V18.4z"/>
	<path class="st0" d="M91.5,22.4c0-0.8,0-1.5-0.1-2.2c0-0.7-0.1-1.3-0.1-1.8H94c0,0.5,0,0.9,0,1.4c0,0.5,0,0.9,0,1.4h0.1
		c0.2-0.4,0.5-0.8,0.8-1.2c0.3-0.4,0.8-0.7,1.2-1c0.5-0.3,1-0.5,1.6-0.7c0.6-0.2,1.2-0.3,1.9-0.3c1.1,0,2.1,0.2,2.9,0.5
		c0.8,0.3,1.5,0.8,2,1.4c0.5,0.6,0.9,1.3,1.2,2.2c0.3,0.8,0.4,1.8,0.4,2.8v10.4h-2.8V25.1c0-1.4-0.3-2.5-0.9-3.3
		c-0.6-0.8-1.6-1.2-2.9-1.2c-0.9,0-1.7,0.2-2.4,0.5c-0.7,0.3-1.2,0.8-1.6,1.3c-0.4,0.6-0.7,1.3-0.9,2s-0.3,1.7-0.3,2.6v8.2h-2.8
		V22.4z"/>
	<path class="st0" d="M128.5,34.4c0,3.1-0.8,5.4-2.4,7c-1.6,1.6-3.8,2.4-6.8,2.4c-1.7,0-3.1-0.2-4.5-0.7s-2.6-1.3-3.8-2.5l2-2.3
		c0.9,1,1.8,1.7,2.8,2.2c1,0.5,2.1,0.7,3.4,0.7c1.2,0,2.3-0.2,3.1-0.6s1.5-0.9,2-1.5s0.8-1.4,1-2.2c0.2-0.8,0.3-1.7,0.3-2.5v-2.2
		h-0.1c-0.7,1.1-1.5,1.9-2.6,2.4c-1.1,0.5-2.2,0.8-3.3,0.8c-1.3,0-2.5-0.2-3.6-0.6c-1.1-0.4-2-1-2.8-1.8c-0.8-0.8-1.4-1.7-1.8-2.7
		c-0.4-1.1-0.6-2.2-0.6-3.4c0-1.4,0.2-2.6,0.6-3.7c0.4-1.1,1-2,1.8-2.8c0.8-0.8,1.7-1.3,2.8-1.7c1.1-0.4,2.3-0.6,3.7-0.6
		c0.6,0,1.1,0.1,1.7,0.2c0.6,0.1,1.1,0.3,1.7,0.6c0.5,0.3,1,0.6,1.5,1s0.8,0.9,1.1,1.5h0.1v-2.9h2.8V34.4z M113.8,26.8
		c0,0.9,0.2,1.7,0.5,2.4c0.3,0.7,0.7,1.4,1.3,1.9c0.5,0.5,1.2,1,1.9,1.3c0.7,0.3,1.5,0.5,2.3,0.5c1,0,1.8-0.2,2.5-0.5
		c0.7-0.3,1.4-0.8,1.9-1.3c0.5-0.6,0.9-1.2,1.2-1.9s0.4-1.5,0.4-2.3c0-0.9-0.1-1.7-0.4-2.5s-0.7-1.4-1.2-2c-0.5-0.5-1.2-1-1.9-1.3
		c-0.7-0.3-1.6-0.4-2.4-0.4c-0.9,0-1.7,0.2-2.4,0.5c-0.7,0.3-1.4,0.8-1.9,1.3c-0.5,0.6-0.9,1.2-1.2,2
		C114,25.1,113.8,25.9,113.8,26.8z"/>
	<path class="st0" d="M142.8,9.8h2.8l10.8,25.4h-3.5l-2.6-6.2h-12.7l-2.6,6.2h-3.4L142.8,9.8z M144.2,13.7L144.2,13.7l-5.3,12.5
		h10.4L144.2,13.7z"/>
	<path class="st0" d="M159.5,18.4h2.8v2.4h0.1c0.8-0.9,1.7-1.6,2.7-2.1c1-0.5,2.1-0.8,3.4-0.8c1.3,0,2.5,0.2,3.6,0.7
		c1.1,0.4,2,1.1,2.8,1.8s1.4,1.7,1.8,2.8c0.4,1.1,0.6,2.2,0.6,3.5c0,1.3-0.2,2.4-0.6,3.5c-0.4,1.1-1,2-1.8,2.8
		c-0.8,0.8-1.6,1.4-2.7,1.8s-2.1,0.7-3.3,0.7c-1.5,0-2.8-0.3-4-1c-1.1-0.7-2-1.5-2.5-2.4h-0.1v11.2h-2.8V18.4z M162.3,26.8
		c0,0.9,0.1,1.7,0.4,2.5c0.3,0.8,0.7,1.4,1.2,2c0.5,0.6,1.2,1,1.9,1.3c0.7,0.3,1.5,0.5,2.5,0.5s1.7-0.2,2.5-0.5
		c0.7-0.3,1.4-0.8,1.9-1.3c0.5-0.6,0.9-1.2,1.2-2c0.3-0.8,0.4-1.6,0.4-2.5c0-0.9-0.1-1.7-0.4-2.5c-0.3-0.8-0.7-1.4-1.2-2
		c-0.5-0.6-1.2-1-1.9-1.3s-1.5-0.5-2.5-0.5s-1.7,0.2-2.5,0.5s-1.4,0.8-1.9,1.3c-0.5,0.6-0.9,1.2-1.2,2
		C162.5,25.1,162.3,25.9,162.3,26.8z"/>
	<path class="st0" d="M181.8,18.4h2.8v2.4h0.1c0.8-0.9,1.7-1.6,2.7-2.1c1-0.5,2.1-0.8,3.4-0.8c1.3,0,2.5,0.2,3.6,0.7
		c1.1,0.4,2,1.1,2.8,1.8s1.4,1.7,1.8,2.8c0.4,1.1,0.6,2.2,0.6,3.5c0,1.3-0.2,2.4-0.6,3.5c-0.4,1.1-1,2-1.8,2.8
		c-0.8,0.8-1.6,1.4-2.7,1.8s-2.1,0.7-3.3,0.7c-1.5,0-2.8-0.3-4-1c-1.1-0.7-2-1.5-2.5-2.4h-0.1v11.2h-2.8V18.4z M184.6,26.8
		c0,0.9,0.1,1.7,0.4,2.5c0.3,0.8,0.7,1.4,1.2,2c0.5,0.6,1.2,1,1.9,1.3c0.7,0.3,1.5,0.5,2.5,0.5s1.7-0.2,2.5-0.5
		c0.7-0.3,1.4-0.8,1.9-1.3c0.5-0.6,0.9-1.2,1.2-2c0.3-0.8,0.4-1.6,0.4-2.5c0-0.9-0.1-1.7-0.4-2.5c-0.3-0.8-0.7-1.4-1.2-2
		c-0.5-0.6-1.2-1-1.9-1.3s-1.5-0.5-2.5-0.5s-1.7,0.2-2.5,0.5s-1.4,0.8-1.9,1.3c-0.5,0.6-0.9,1.2-1.2,2
		C184.8,25.1,184.6,25.9,184.6,26.8z"/>
</g>
</svg>
