<?xml version="1.0" encoding="UTF-8"?>
<svg width="187px" height="25px" viewBox="0 0 187 25" version="1.1" xmlns="http://www.w3.org/2000/svg" xmlns:xlink="http://www.w3.org/1999/xlink">
    <title>CMInAppLogo</title>
    <defs>
        <polygon id="path-1" points="0.851 0.836 0.851 5.498 0.851 19.487 0.851 24.149 5.612 24.149 15.134 24.149 15.134 19.487 5.612 19.487 5.612 5.498 24.657 5.498 24.657 0.836"></polygon>
        <polygon id="path-3" points="0.373 0.161 0.373 4.823 9.896 4.823 9.896 14.149 14.656 14.149 14.656 4.823 14.656 0.161"></polygon>
    </defs>
    <g id="CMInAppLogo" stroke="none" stroke-width="1" fill="none" fill-rule="evenodd">
        <g id="Page-1">
            <g id="Group-31" transform="translate(35.000000, 6.014800)" fill="white">
                <path d="M11.9539,11.2458 C11.1089,12.5578 9.3479,13.5818 7.2449,13.5818 C3.4529,13.5818 0.6129,10.7608 0.6129,6.8968 C0.6129,3.0328 3.4529,0.2108 7.2449,0.2108 C8.8269,0.2108 10.5339,0.8038 11.6479,2.2238 L10.5159,3.0688 C10.0129,2.2418 8.5929,1.3968 7.2449,1.3968 C3.9739,1.3968 2.0149,3.9668 2.0149,6.8968 C2.0149,9.8258 3.9739,12.3958 7.2449,12.3958 C8.5749,12.3958 9.9409,11.9648 10.8929,10.4918 L11.9539,11.2458 Z" id="Fill-1"></path>
                <path d="M18.0842,5.7102 C16.1432,5.7102 14.9202,7.1662 14.9202,9.0532 C14.9202,10.9402 16.1432,12.3962 18.0842,12.3962 C20.0432,12.3962 21.2652,10.9402 21.2652,9.0532 C21.2652,7.1662 20.0432,5.7102 18.0842,5.7102 M18.0842,13.4742 C15.4782,13.4742 13.6272,11.5872 13.6272,9.0532 C13.6272,6.5192 15.4782,4.6322 18.0842,4.6322 C20.7082,4.6322 22.5592,6.5192 22.5592,9.0532 C22.5592,11.5872 20.7082,13.4742 18.0842,13.4742" id="Fill-3"></path>
                <path d="M26.2092,4.8479 C26.2632,5.2969 26.2632,5.7459 26.2632,6.1959 L26.2992,6.1959 C26.8202,5.2789 28.0062,4.6319 29.1202,4.6319 C31.2592,4.6319 32.2832,5.8359 32.2832,7.9209 L32.2832,13.2589 L31.0982,13.2589 L31.0982,8.6039 C31.0982,6.7349 30.5762,5.7099 28.8152,5.7099 C28.5632,5.7099 26.2632,5.8719 26.2632,8.9459 L26.2632,13.2589 L25.0762,13.2589 L25.0762,6.6989 C25.0762,6.2489 25.0232,5.4589 24.9872,4.8479 L26.2092,4.8479 Z" id="Fill-5"></path>
                <path d="M39.78,5.926 L37.354,5.926 L37.354,10.886 C37.354,12.145 37.839,12.396 38.576,12.396 C38.989,12.396 39.439,12.27 39.798,12.072 L39.852,13.169 C39.421,13.367 38.845,13.474 38.253,13.474 C37.354,13.474 36.168,13.079 36.168,11.228 L36.168,5.926 L34.388,5.926 L34.388,4.848 L36.168,4.848 L36.168,2.475 L37.354,2.475 L37.354,4.848 L39.78,4.848 L39.78,5.926 Z" id="Fill-7"></path>
                <path d="M46.5383,9.0715 C45.3343,9.0715 42.6213,9.1605 42.6213,10.8505 C42.6213,11.9655 43.6443,12.3965 44.5983,12.3965 C46.3233,12.3965 47.1493,11.1745 47.1493,9.6825 L47.1493,9.0715 L46.5383,9.0715 Z M47.1493,8.1005 L47.1493,7.8855 C47.1493,6.4295 46.4483,5.7105 44.9933,5.7105 C44.0043,5.7105 43.1423,6.0515 42.4223,6.6985 L41.7043,5.8545 C42.4763,5.0635 43.6813,4.6325 45.2623,4.6325 C46.9163,4.6325 48.3353,5.5665 48.3353,7.6155 L48.3353,11.3715 C48.3353,12.0185 48.4073,12.8095 48.4793,13.2585 L47.3293,13.2585 C47.2573,12.8455 47.2213,12.3425 47.2213,11.8925 L47.1853,11.8925 C46.5023,13.0075 45.5673,13.4745 44.2203,13.4745 C42.7283,13.4745 41.3263,12.6475 41.3263,11.0125 C41.3263,8.2805 44.5433,8.1005 46.5563,8.1005 L47.1493,8.1005 Z" id="Fill-9"></path>
                <path d="M57.575,6.8244 C57.18,6.2144 56.407,5.7104 55.472,5.7104 C53.513,5.6744 52.309,7.1304 52.309,9.0534 C52.309,10.9764 53.513,12.4324 55.472,12.3964 C56.407,12.3964 57.18,11.8924 57.575,11.2824 L58.546,12.0184 C57.719,12.9894 56.605,13.4564 55.472,13.4744 C52.722,13.5104 51.015,11.5874 51.015,9.0534 C51.015,6.5184 52.722,4.5954 55.472,4.6324 C56.605,4.6504 57.719,5.1174 58.546,6.0884 L57.575,6.8244 Z" id="Fill-11"></path>
                <path d="M64.8186,5.926 L62.3926,5.926 L62.3926,10.886 C62.3926,12.145 62.8786,12.396 63.6146,12.396 C64.0276,12.396 64.4776,12.27 64.8366,12.072 L64.8906,13.169 C64.4596,13.367 63.8846,13.474 63.2916,13.474 C62.3926,13.474 61.2066,13.079 61.2066,11.228 L61.2066,5.926 L59.4276,5.926 L59.4276,4.848 L61.2066,4.848 L61.2066,2.475 L62.3926,2.475 L62.3926,4.848 L64.8186,4.848 L64.8186,5.926 Z" id="Fill-13"></path>
                <polygon id="Fill-15" points="73.5002 10.8865 77.7952 0.5345 79.7722 0.5345 79.7722 13.2595 78.4792 13.2595 78.4792 2.2595 78.4422 2.2595 73.8422 13.2595 73.1592 13.2595 68.5582 2.2595 68.5222 2.2595 68.5222 13.2595 67.2282 13.2595 67.2282 0.5345 69.2052 0.5345"></polygon>
                <path d="M87.9348,9.0715 C86.7308,9.0715 84.0178,9.1605 84.0178,10.8505 C84.0178,11.9655 85.0408,12.3965 85.9938,12.3965 C87.7198,12.3965 88.5458,11.1745 88.5458,9.6825 L88.5458,9.0715 L87.9348,9.0715 Z M88.5458,8.1005 L88.5458,7.8855 C88.5458,6.4295 87.8448,5.7105 86.3898,5.7105 C85.4008,5.7105 84.5388,6.0515 83.8188,6.6985 L83.1008,5.8545 C83.8728,5.0635 85.0778,4.6325 86.6588,4.6325 C88.3128,4.6325 89.7318,5.5665 89.7318,7.6155 L89.7318,11.3715 C89.7318,12.0185 89.8038,12.8095 89.8758,13.2585 L88.7258,13.2585 C88.6538,12.8455 88.6178,12.3425 88.6178,11.8925 L88.5818,11.8925 C87.8988,13.0075 86.9638,13.4745 85.6168,13.4745 C84.1248,13.4745 82.7228,12.6475 82.7228,11.0125 C82.7228,8.2805 85.9398,8.1005 87.9528,8.1005 L88.5458,8.1005 Z" id="Fill-17"></path>
                <path d="M93.9753,4.8479 C94.0293,5.2969 94.0293,5.7459 94.0293,6.1959 L94.0653,6.1959 C94.5863,5.2789 95.7723,4.6319 96.8863,4.6319 C99.0253,4.6319 100.0493,5.8359 100.0493,7.9209 L100.0493,13.2589 L98.8643,13.2589 L98.8643,8.6039 C98.8643,6.7349 98.3423,5.7099 96.5813,5.7099 C96.3293,5.7099 94.0293,5.8719 94.0293,8.9459 L94.0293,13.2589 L92.8433,13.2589 L92.8433,6.6989 C92.8433,6.2489 92.7893,5.4589 92.7533,4.8479 L93.9753,4.8479 Z" id="Fill-19"></path>
                <path d="M107.9778,9.0715 C106.7728,9.0715 104.0598,9.1605 104.0598,10.8505 C104.0598,11.9655 105.0838,12.3965 106.0368,12.3965 C107.7618,12.3965 108.5888,11.1745 108.5888,9.6825 L108.5888,9.0715 L107.9778,9.0715 Z M108.5888,8.1005 L108.5888,7.8855 C108.5888,6.4295 107.8878,5.7105 106.4318,5.7105 C105.4438,5.7105 104.5808,6.0515 103.8618,6.6985 L103.1438,5.8545 C103.9158,5.0635 105.1198,4.6325 106.7018,4.6325 C108.3548,4.6325 109.7748,5.5665 109.7748,7.6155 L109.7748,11.3715 C109.7748,12.0185 109.8468,12.8095 109.9188,13.2585 L108.7688,13.2585 C108.6958,12.8455 108.6608,12.3425 108.6608,11.8925 L108.6248,11.8925 C107.9418,13.0075 107.0068,13.4745 105.6588,13.4745 C104.1668,13.4745 102.7658,12.6475 102.7658,11.0125 C102.7658,8.2805 105.9828,8.1005 107.9958,8.1005 L108.5888,8.1005 Z" id="Fill-21"></path>
                <path d="M116.8752,12.1804 C118.6002,12.1804 120.1272,10.8864 120.0562,8.9454 C120.0562,7.1844 118.8522,5.7104 116.8752,5.7104 C115.1142,5.7104 113.7482,7.1844 113.7482,8.9454 C113.7482,10.7064 115.1142,12.1804 116.8752,12.1804 Z M113.5322,14.9484 C114.2332,15.8824 115.4012,16.4934 116.7492,16.4934 C119.1572,16.4934 120.0202,15.0024 120.0202,13.1864 L120.0202,11.6774 L119.9842,11.6774 C119.2292,12.8094 118.0612,13.2594 116.8392,13.2594 C114.4132,13.2594 112.4542,11.4434 112.4542,8.9814 C112.4542,6.5364 114.2512,4.6324 116.7312,4.6324 C117.7382,4.6324 119.0132,4.9374 119.9842,6.2494 L120.0202,6.2494 L120.0202,4.8474 L121.2062,4.8474 L121.2062,13.1864 C121.2062,15.0204 120.4692,17.5724 116.6952,17.5724 C115.0232,17.5724 113.7302,17.0334 112.6512,15.8824 L113.5322,14.9484 Z" id="Fill-23"></path>
                <path d="M130.7698,8.4065 C130.7698,6.8065 129.7448,5.7105 128.0378,5.7105 C126.4928,5.7105 125.0908,7.0225 125.0908,8.4065 L130.7698,8.4065 Z M125.0548,9.3765 C125.1978,11.0665 126.4748,12.3965 128.1458,12.3965 C129.4038,12.3965 130.3738,11.6955 130.8418,10.9405 L131.7578,11.6955 C130.7698,12.9535 129.5298,13.4745 128.1458,13.4745 C125.6478,13.4745 123.7968,11.5875 123.7968,9.0535 C123.7968,6.5185 125.6478,4.6325 128.0378,4.6325 C130.5898,4.6505 132.0628,6.5365 132.0628,8.8375 L132.0628,9.3765 L125.0548,9.3765 Z" id="Fill-25"></path>
                <path d="M134.7068,7.4719 C134.7068,6.7169 134.6708,6.0699 134.6348,4.8479 L135.8028,4.8479 L135.8028,6.4109 L135.8388,6.4109 C136.1808,5.5129 137.0608,4.6319 138.5348,4.6319 C138.8768,4.6319 139.1648,4.6679 139.4158,4.7399 L139.1828,5.9089 C139.0388,5.8539 138.8228,5.8189 138.4988,5.8189 C136.7018,5.8189 135.8938,7.3819 135.8938,8.5139 L135.8938,13.2589 L134.7068,13.2589 L134.7068,7.4719 Z" id="Fill-27"></path>
                <path d="M149.8767,5.1736 L149.2127,5.1736 L149.2127,1.3476 L149.1907,1.3476 L147.6537,5.1736 L147.2227,5.1736 L145.6857,1.3476 L145.6637,1.3476 L145.6637,5.1736 L144.9997,5.1736 L144.9997,0.6176 L146.0277,0.6176 L147.4547,4.1116 L148.8817,0.6176 L149.8767,0.6176 L149.8767,5.1736 Z M144.0487,1.2146 L142.5777,1.2146 L142.5777,5.1736 L141.9147,5.1736 L141.9147,1.2146 L140.4107,1.2146 L140.4107,0.6176 L144.0487,0.6176 L144.0487,1.2146 Z" id="Fill-29"></path>
            </g>
            <g id="Group-34" transform="translate(0.000000, 0.014800)">
                <mask id="mask-2" fill="white">
                    <use xlink:href="#path-1"></use>
                </mask>
                <g id="Clip-33"></g>
                <polygon id="Fill-32" fill="white" mask="url(#mask-2)" points="-4 29 29.508 29 29.508 -4.015 -4 -4.015"></polygon>
            </g>
            <g id="Group-37" transform="translate(10.000000, 10.014800)">
                <mask id="mask-4" fill="white">
                    <use xlink:href="#path-3"></use>
                </mask>
                <g id="Clip-36"></g>
                <polygon id="Fill-35" fill="white" mask="url(#mask-4)" points="-4.478 19 19.507 19 19.507 -4.689 -4.478 -4.689"></polygon>
            </g>
        </g>
    </g>
</svg>
