<?xml version="1.0" encoding="utf-8"?>
<!-- Generator: Adobe Illustrator 22.1.0, SVG Export Plug-In . SVG Version: 6.00 Build 0)  -->
<svg version="1.1" id="Layer_2" xmlns="http://www.w3.org/2000/svg" xmlns:xlink="http://www.w3.org/1999/xlink" x="0px" y="0px"
	 width="136.9px" height="25px" viewBox="0 0 136.9 25" style="enable-background:new 0 0 136.9 25;" xml:space="preserve">
<style type="text/css">
	.st0{fill:#00739D;}
</style>
<g>
	<path class="st0" d="M44.9,7.9h-4.2v11.4h-1.5V7.9h-4.2V6.5h10V7.9z"/>
	<path class="st0" d="M44.9,12.8c0-0.4,0-0.7,0-1.1c0-0.3,0-0.6,0-0.9h1.3c0,0.2,0,0.5,0,0.7c0,0.2,0,0.5,0,0.7h0
		c0.1-0.2,0.2-0.4,0.4-0.6s0.4-0.4,0.6-0.5c0.2-0.2,0.5-0.3,0.8-0.4c0.3-0.1,0.6-0.1,1-0.1c0.1,0,0.2,0,0.3,0s0.2,0,0.3,0.1
		l-0.1,1.4C49.3,12,49.1,12,48.8,12c-0.9,0-1.5,0.3-1.9,0.8c-0.4,0.6-0.6,1.3-0.6,2.3v4.1h-1.4V12.8z"/>
	<path class="st0" d="M51.4,11.9c0.4-0.4,0.9-0.8,1.5-1c0.6-0.2,1.2-0.3,1.8-0.3c1.3,0,2.2,0.3,2.7,0.9s0.8,1.5,0.8,2.7v3.6
		c0,0.2,0,0.5,0,0.8c0,0.3,0.1,0.5,0.1,0.7H57c0-0.2-0.1-0.4-0.1-0.6c0-0.2,0-0.4,0-0.6h0c-0.3,0.4-0.6,0.8-1.1,1.1s-1,0.4-1.7,0.4
		c-0.4,0-0.8-0.1-1.2-0.2c-0.4-0.1-0.7-0.3-1-0.5c-0.3-0.2-0.5-0.5-0.7-0.8C51.1,17.7,51,17.4,51,17c0-0.7,0.2-1.2,0.5-1.6
		c0.4-0.4,0.8-0.7,1.3-0.9c0.5-0.2,1.1-0.3,1.7-0.4c0.6,0,1.2-0.1,1.7-0.1h0.5v-0.3c0-0.6-0.2-1.1-0.6-1.4c-0.4-0.3-0.9-0.5-1.5-0.5
		c-0.5,0-0.9,0.1-1.3,0.2c-0.4,0.2-0.8,0.4-1.2,0.7L51.4,11.9z M55.5,15.2c-0.9,0-1.6,0.1-2.2,0.4c-0.5,0.3-0.8,0.7-0.8,1.2
		c0,0.5,0.2,0.9,0.5,1.1c0.4,0.2,0.8,0.3,1.3,0.3c0.4,0,0.8-0.1,1.1-0.2c0.3-0.1,0.6-0.3,0.8-0.6s0.4-0.5,0.5-0.8
		c0.1-0.3,0.2-0.6,0.2-1v-0.5H55.5z"/>
	<path class="st0" d="M60.8,7.5c0-0.3,0.1-0.5,0.3-0.7c0.2-0.2,0.4-0.3,0.7-0.3c0.3,0,0.5,0.1,0.7,0.3c0.2,0.2,0.3,0.4,0.3,0.7
		c0,0.3-0.1,0.5-0.3,0.7s-0.4,0.3-0.7,0.3s-0.5-0.1-0.7-0.3C60.9,8,60.8,7.8,60.8,7.5z M61.2,10.8h1.4v8.5h-1.4V10.8z"/>
	<path class="st0" d="M65.6,12.8c0-0.4,0-0.7,0-1.1c0-0.3,0-0.6,0-0.9h1.3c0,0.2,0,0.5,0,0.7c0,0.2,0,0.5,0,0.7h0
		c0.1-0.2,0.2-0.4,0.4-0.6s0.4-0.4,0.6-0.5c0.2-0.2,0.5-0.3,0.8-0.4c0.3-0.1,0.6-0.1,1-0.1c0.6,0,1,0.1,1.4,0.3
		c0.4,0.2,0.7,0.4,1,0.7c0.3,0.3,0.5,0.7,0.6,1.1c0.1,0.4,0.2,0.9,0.2,1.4v5.2h-1.4v-5.1c0-0.7-0.2-1.3-0.5-1.7
		c-0.3-0.4-0.8-0.6-1.5-0.6c-0.5,0-0.9,0.1-1.2,0.2c-0.3,0.2-0.6,0.4-0.8,0.7c-0.2,0.3-0.4,0.6-0.5,1C67,14.2,67,14.7,67,15.1v4.1
		h-1.4V12.8z"/>
	<path class="st0" d="M75.6,7.5c0-0.3,0.1-0.5,0.3-0.7c0.2-0.2,0.4-0.3,0.7-0.3c0.3,0,0.5,0.1,0.7,0.3c0.2,0.2,0.3,0.4,0.3,0.7
		c0,0.3-0.1,0.5-0.3,0.7s-0.4,0.3-0.7,0.3s-0.5-0.1-0.7-0.3C75.7,8,75.6,7.8,75.6,7.5z M75.9,10.8h1.4v8.5h-1.4V10.8z"/>
	<path class="st0" d="M80.3,12.8c0-0.4,0-0.7,0-1.1c0-0.3,0-0.6,0-0.9h1.3c0,0.2,0,0.5,0,0.7c0,0.2,0,0.5,0,0.7h0
		c0.1-0.2,0.2-0.4,0.4-0.6s0.4-0.4,0.6-0.5c0.2-0.2,0.5-0.3,0.8-0.4c0.3-0.1,0.6-0.1,1-0.1c0.6,0,1,0.1,1.4,0.3
		c0.4,0.2,0.7,0.4,1,0.7c0.3,0.3,0.5,0.7,0.6,1.1c0.1,0.4,0.2,0.9,0.2,1.4v5.2h-1.4v-5.1c0-0.7-0.2-1.3-0.5-1.7
		c-0.3-0.4-0.8-0.6-1.5-0.6c-0.5,0-0.9,0.1-1.2,0.2c-0.3,0.2-0.6,0.4-0.8,0.7c-0.2,0.3-0.4,0.6-0.5,1c-0.1,0.4-0.2,0.8-0.2,1.3v4.1
		h-1.4V12.8z"/>
	<path class="st0" d="M99,18.9c0,1.5-0.4,2.7-1.2,3.5c-0.8,0.8-1.9,1.2-3.4,1.2c-0.8,0-1.6-0.1-2.3-0.4c-0.7-0.2-1.3-0.7-1.9-1.2
		l1-1.2c0.4,0.5,0.9,0.8,1.4,1.1s1.1,0.4,1.7,0.4c0.6,0,1.1-0.1,1.6-0.3c0.4-0.2,0.7-0.4,1-0.8c0.2-0.3,0.4-0.7,0.5-1.1
		c0.1-0.4,0.1-0.8,0.1-1.3v-1.1h0c-0.3,0.5-0.8,0.9-1.3,1.2s-1.1,0.4-1.7,0.4c-0.7,0-1.3-0.1-1.8-0.3c-0.6-0.2-1-0.5-1.4-0.9
		s-0.7-0.8-0.9-1.4c-0.2-0.5-0.3-1.1-0.3-1.7c0-0.7,0.1-1.3,0.3-1.9c0.2-0.6,0.5-1,0.9-1.4c0.4-0.4,0.9-0.7,1.4-0.9
		c0.6-0.2,1.2-0.3,1.8-0.3c0.3,0,0.6,0,0.9,0.1c0.3,0.1,0.6,0.2,0.8,0.3s0.5,0.3,0.7,0.5c0.2,0.2,0.4,0.5,0.5,0.7h0v-1.4H99V18.9z
		 M91.6,15c0,0.4,0.1,0.8,0.2,1.2c0.2,0.4,0.4,0.7,0.6,1c0.3,0.3,0.6,0.5,0.9,0.6c0.4,0.2,0.7,0.2,1.2,0.2c0.5,0,0.9-0.1,1.3-0.3
		c0.4-0.2,0.7-0.4,0.9-0.7c0.3-0.3,0.5-0.6,0.6-1c0.1-0.4,0.2-0.8,0.2-1.2c0-0.5-0.1-0.9-0.2-1.3c-0.1-0.4-0.4-0.7-0.6-1
		c-0.3-0.3-0.6-0.5-1-0.6c-0.4-0.2-0.8-0.2-1.2-0.2s-0.9,0.1-1.2,0.2c-0.4,0.2-0.7,0.4-0.9,0.7s-0.5,0.6-0.6,1
		C91.7,14.2,91.6,14.6,91.6,15z"/>
	<path class="st0" d="M106.2,6.5h1.4l5.4,12.8h-1.8l-1.3-3.1h-6.4l-1.3,3.1h-1.7L106.2,6.5z M106.9,8.4L106.9,8.4l-2.7,6.3h5.2
		L106.9,8.4z"/>
	<path class="st0" d="M114.6,10.8h1.4V12h0c0.4-0.5,0.8-0.8,1.3-1.1c0.5-0.3,1.1-0.4,1.7-0.4c0.7,0,1.3,0.1,1.8,0.3
		c0.5,0.2,1,0.5,1.4,0.9s0.7,0.9,0.9,1.4c0.2,0.5,0.3,1.1,0.3,1.8c0,0.6-0.1,1.2-0.3,1.8s-0.5,1-0.9,1.4c-0.4,0.4-0.8,0.7-1.3,0.9
		c-0.5,0.2-1.1,0.3-1.7,0.3c-0.8,0-1.4-0.2-2-0.5c-0.6-0.3-1-0.7-1.3-1.2h0v5.6h-1.4V10.8z M116,15c0,0.4,0.1,0.9,0.2,1.2
		s0.3,0.7,0.6,1c0.3,0.3,0.6,0.5,0.9,0.7c0.4,0.2,0.8,0.2,1.2,0.2s0.9-0.1,1.2-0.2c0.4-0.2,0.7-0.4,0.9-0.7c0.3-0.3,0.5-0.6,0.6-1
		c0.1-0.4,0.2-0.8,0.2-1.2s-0.1-0.9-0.2-1.2c-0.1-0.4-0.3-0.7-0.6-1s-0.6-0.5-0.9-0.7c-0.4-0.2-0.8-0.2-1.2-0.2s-0.9,0.1-1.2,0.2
		s-0.7,0.4-0.9,0.7c-0.3,0.3-0.5,0.6-0.6,1S116,14.6,116,15z"/>
	<path class="st0" d="M125.9,10.8h1.4V12h0c0.4-0.5,0.8-0.8,1.3-1.1c0.5-0.3,1.1-0.4,1.7-0.4c0.7,0,1.3,0.1,1.8,0.3
		c0.5,0.2,1,0.5,1.4,0.9s0.7,0.9,0.9,1.4c0.2,0.5,0.3,1.1,0.3,1.8c0,0.6-0.1,1.2-0.3,1.8s-0.5,1-0.9,1.4c-0.4,0.4-0.8,0.7-1.3,0.9
		c-0.5,0.2-1.1,0.3-1.7,0.3c-0.8,0-1.4-0.2-2-0.5c-0.6-0.3-1-0.7-1.3-1.2h0v5.6h-1.4V10.8z M127.3,15c0,0.4,0.1,0.9,0.2,1.2
		s0.3,0.7,0.6,1c0.3,0.3,0.6,0.5,0.9,0.7c0.4,0.2,0.8,0.2,1.2,0.2s0.9-0.1,1.2-0.2c0.4-0.2,0.7-0.4,0.9-0.7c0.3-0.3,0.5-0.6,0.6-1
		c0.1-0.4,0.2-0.8,0.2-1.2s-0.1-0.9-0.2-1.2c-0.1-0.4-0.3-0.7-0.6-1s-0.6-0.5-0.9-0.7c-0.4-0.2-0.8-0.2-1.2-0.2s-0.9,0.1-1.2,0.2
		s-0.7,0.4-0.9,0.7c-0.3,0.3-0.5,0.6-0.6,1S127.3,14.6,127.3,15z"/>
</g>
<g>
	<polygon class="st0" points="24.5,5.5 24.5,0.8 5.7,0.8 1.1,0.8 1.1,5.5 1.1,19.6 1.1,24.2 1.1,24.2 5.7,24.2 5.7,24.2 15.1,24.2 
		15.1,19.6 5.7,19.6 5.7,5.5 	"/>
	<polygon class="st0" points="24.5,10.2 24.5,14.9 24.5,14.9 24.5,24.2 19.8,24.2 19.8,14.9 10.4,14.9 10.4,10.2 	"/>
</g>
</svg>
