<?xml version="1.0" encoding="UTF-8"?>
<svg width="187px" height="30px" viewBox="0 0 187 30" version="1.1" xmlns="http://www.w3.org/2000/svg" xmlns:xlink="http://www.w3.org/1999/xlink">
    <title>GW_logo_horizontal</title>
    <g id="GW_logo_horizontal" stroke="none" stroke-width="1" fill="none" fill-rule="evenodd">
        <path d="M53.7903182,23.41084 C52.8038278,23.9528 51.7747273,24.34448 50.7030166,24.5852 C49.6313058,24.82592 48.5376444,24.94628 47.4226779,24.94628 C46.2360488,24.94628 45.143033,24.75044 44.1423392,24.35944 C43.1416455,23.96776 42.2771752,23.40744 41.5482828,22.67712 C40.8193904,21.9468 40.2512546,21.06212 39.8438754,20.02376 C39.4364962,18.98472 39.2331294,17.826 39.2331294,16.54624 C39.2331294,15.26648 39.4364962,14.10708 39.8438754,13.06804 C40.2512546,12.02968 40.8193904,11.14568 41.5482828,10.41468 C42.2771752,9.68504 43.1416455,9.12404 44.1423392,8.73236 C45.143033,8.34136 46.2360488,8.14552 47.4226779,8.14552 C48.6370682,8.14552 49.7559084,8.29988 50.7779072,8.6086 C51.799906,8.91732 52.6966568,9.44772 53.468805,10.20048 L51.1103958,12.91028 C50.6526591,12.4132 50.1381088,12.03716 49.566745,11.7808 C48.9947355,11.52512 48.2800465,11.39728 47.4226779,11.39728 C46.7079889,11.39728 46.0610888,11.52512 45.4826232,11.7808 C44.9035121,12.03716 44.4063933,12.39484 43.992558,12.85384 C43.5774315,13.31352 43.2597919,13.85888 43.0383481,14.49128 C42.8162586,15.123 42.7058595,15.80844 42.7058595,16.54624 C42.7058595,17.299 42.8162586,17.98784 43.0383481,18.61208 C43.2597919,19.237 43.5774315,19.77896 43.992558,20.23796 C44.4063933,20.69764 44.9035121,21.05464 45.4826232,21.311 C46.0610888,21.56668 46.7079889,21.69452 47.4226779,21.69452 C48.1515703,21.69452 48.7803934,21.60816 49.3097926,21.43476 C49.8379007,21.26204 50.2594833,21.08456 50.5745404,20.90436 L50.5745404,18.30744 L47.8513622,18.30744 L47.8513622,15.05568 L53.7903182,15.05568 L53.7903182,23.41084 Z" id="Fill-1" fill="#545150"></path>
        <path d="M72.7433933,18.374964 C72.7433933,19.323564 72.6071698,20.196684 72.3360141,20.994324 C72.0642128,21.792644 71.6607072,22.484884 71.1248518,23.071724 C70.5889965,23.659244 69.9201457,24.118244 69.1202363,24.449404 C68.3196813,24.780564 67.3971062,24.946484 66.3544479,24.946484 C65.2962949,24.946484 64.3672638,24.780564 63.5673544,24.449404 C62.7667994,24.118244 62.0985942,23.659244 61.5627388,23.071724 C61.0262379,22.484884 60.6227323,21.792644 60.350931,20.994324 C60.0791297,20.196684 59.9435518,19.323564 59.9435518,18.374964 L59.9435518,8.551684 L63.2884514,8.551684 L63.2884514,18.239644 C63.2884514,18.736044 63.363342,19.195724 63.5137689,19.616644 C63.6635501,20.038244 63.8746642,20.404084 64.1458199,20.712124 C64.4169757,21.020844 64.7423625,21.262244 65.1213349,21.434964 C65.5003074,21.608364 65.9109146,21.694724 66.3544479,21.694724 C66.7973356,21.694724 67.2047148,21.608364 67.5765855,21.434964 C67.9478106,21.262244 68.2693238,21.020844 68.5411251,20.712124 C68.8122809,20.404084 69.023395,20.038244 69.1738218,19.616644 C69.3236031,19.195724 69.3984937,18.736044 69.3984937,18.239644 L69.3984937,8.551684 L72.7433933,8.551684 L72.7433933,18.374964 Z" id="Fill-3" fill="#545150"></path>
        <polygon id="Fill-6" fill="#545150" points="78.9888579 24.5641026 82.2869081 24.5641026 82.2869081 8.43589744 78.9888579 8.43589744"></polygon>
        <path d="M88.4707521,8.43589744 L93.4937577,8.43589744 C94.7095953,8.43589744 95.8653197,8.58063422 96.9602845,8.86873588 C98.0552493,9.15752349 99.0105964,9.62465975 99.8256794,10.2694587 C100.641409,10.9156296 101.28908,11.7545541 101.768693,12.7869184 C102.247659,13.8199686 102.487465,15.0725249 102.487465,16.5452731 C102.487465,17.8520199 102.254769,19.0023687 101.790023,19.9963194 C101.324631,20.991642 100.698936,21.8264509 99.9116477,22.5021178 C99.124359,23.1784708 98.2161975,23.6908802 97.1858705,24.0400319 C96.1555435,24.3898697 95.074799,24.5641026 93.9442834,24.5641026 L88.4707521,24.5641026 L88.4707521,8.43589744 Z M91.819638,21.2838594 L93.5583956,21.2838594 C94.3308176,21.2838594 95.0502366,21.2001727 95.7153599,21.0327994 C96.3804832,20.866112 96.9570526,20.5889857 97.4431291,20.2014203 C97.9298519,19.814541 98.3131542,19.3055614 98.5917433,18.6751675 C98.8709787,18.0454596 99.0105964,17.2744447 99.0105964,16.3634947 C99.0105964,15.573959 98.8709787,14.8866307 98.5917433,14.30151 C98.3131542,13.7170752 97.9369621,13.2348479 97.4651059,12.855514 C96.9926034,12.4754942 96.4380108,12.1908224 95.8013282,12.0008125 C95.1646456,11.8114885 94.4949977,11.7161406 93.7943236,11.7161406 L91.819638,11.7161406 L91.819638,21.2838594 Z" id="Fill-7" fill="#545150"></path>
        <polygon id="Fill-9" fill="#545150" points="108.259053 8.43589744 118.59091 8.43589744 118.59091 11.7161406 111.610293 11.7161406 111.610293 14.7233731 118.204104 14.7233731 118.204104 18.0036163 111.610293 18.0036163 111.610293 21.2838594 118.977716 21.2838594 118.977716 24.5641026 108.259053 24.5641026"></polygon>
        <polygon id="Fill-10" fill="#545150" points="123.100279 8.43589744 126.730498 8.43589744 129.142928 18.778061 129.185365 18.778061 132.346214 8.43589744 135.442124 8.43589744 138.58047 19.0510716 138.623549 19.0510716 141.163931 8.43589744 144.537604 8.43589744 140.117816 24.5641026 137.149857 24.5641026 133.819263 13.4022212 133.776184 13.4022212 130.445589 24.5641026 127.584365 24.5641026"></polygon>
        <polygon id="Fill-11" fill="#545150" points="149.48468 24.5641026 152.78273 24.5641026 152.78273 8.43589744 149.48468 8.43589744"></polygon>
        <path d="M158.966574,8.43589744 L164.932411,8.43589744 C165.716579,8.43589744 166.460096,8.51546837 167.164273,8.67529619 C167.868451,8.83443806 168.48477,9.10058912 169.015197,9.47237744 C169.54497,9.84485173 169.965902,10.3455998 170.277996,10.9759937 C170.590089,11.6063876 170.746136,12.3918076 170.746136,13.3336256 C170.746136,14.4723131 170.462892,15.4408834 169.897058,16.2379647 C169.330569,17.0350459 168.503128,17.5405957 167.414735,17.7525563 L171.334262,24.5641026 L167.262622,24.5641026 L164.04006,18.117485 L162.363541,18.117485 L162.363541,24.5641026 L158.966574,24.5641026 L158.966574,8.43589744 Z M162.363541,15.1102525 L164.366578,15.1102525 C164.671459,15.1102525 164.994043,15.0992772 165.335641,15.0759547 C165.676584,15.0533181 165.984743,14.9847225 166.260776,14.8708537 C166.536152,14.756985 166.764977,14.5786363 166.946595,14.3358078 C167.128212,14.0929793 167.218693,13.751373 167.218693,13.310989 C167.218693,12.9007872 167.138703,12.5742719 166.979377,12.3314434 C166.819397,12.0886149 166.616143,11.9020347 166.369615,11.773075 C166.122432,11.6441152 165.839843,11.5569987 165.520537,11.5110396 C165.201231,11.4657665 164.889138,11.44313 164.584257,11.44313 L162.363541,11.44313 L162.363541,15.1102525 Z" id="Fill-12" fill="#545150"></path>
        <polygon id="Fill-14" fill="#545150" points="176.281337 8.43589744 176.281337 24.5641026 187 24.5641026 187 21.2838594 179.632577 21.2838594 179.632577 18.0029303 186.226388 18.0029303 186.226388 14.7233731 179.632577 14.7233731 179.632577 11.7161406 186.613194 11.7161406 186.613194 8.43589744"></polygon>
        <polygon id="Fill-15" fill="#03749F" points="0 0 0 6.00013189 0 23.9998681 0 30 6.00013189 30 17.9997362 30 17.9997362 23.9998681 6.00013189 23.9998681 6.00013189 6.00013189 30 6.00013189 30 0"></polygon>
        <polygon id="Fill-16" fill="#03749F" points="13 12 13 18 24.3333333 18 24.3333333 30 30 30 30 18 30 12"></polygon>
    </g>
</svg>