<svg xmlns="http://www.w3.org/2000/svg" viewBox="0 0 32 32"><path fill="#586d87" d="M32 18.625V32H0V18.625a28.42 28.42 0 0 1 7.278-3.347l.205-.053a9.785 9.785 0 0 1-1.08-2.429l-.018-.07A9.764 9.764 0 0 1 6 9.982c0-1.844.5-3.571 1.373-5.053l-.025.047a10.196 10.196 0 0 1 3.605-3.602l.048-.026c1.434-.843 3.159-1.342 5-1.342s3.566.498 5.047 1.367l-.047-.026a10.22 10.22 0 0 1 3.627 3.596l.026.047a9.86 9.86 0 0 1 1.347 5.006c0 .977-.141 1.922-.403 2.815l.018-.07a9.953 9.953 0 0 1-1.122 2.542l.025-.042c2.846.832 5.331 1.986 7.594 3.453l-.111-.068zm-2 1.142a26.52 26.52 0 0 0-6.595-2.796l-.19-.044.267-.302a9.94 9.94 0 0 1-7.479 3.383 9.93 9.93 0 0 1-7.198-3.077l-.004-.004c-2.582.682-4.845 1.654-6.92 2.906l.118-.066V30h28zM11.982 3.072c-2.398 1.406-3.983 3.97-3.983 6.905v.024V10v.022a7.975 7.975 0 0 0 3.945 6.885l.038.02a7.91 7.91 0 0 0 4.02 1.084 7.996 7.996 0 0 0 6.904-3.956l.02-.038a7.747 7.747 0 0 0 1.073-3.956v-.065-.019a7.975 7.975 0 0 0-3.945-6.885l-.038-.02c-1.153-.674-2.539-1.073-4.017-1.073s-2.864.398-4.056 1.093l.038-.021z"/></svg>