<svg xmlns="http://www.w3.org/2000/svg" viewBox="0 0 16 16"><path fill="#db5345" d="M7.259 15q.473.571 1.08 1H0V2h4V1h1v1h5V1h1v1h4v5.259q-.455-.375-1-.661V6H1v9h6.259zM1 5h13V3h-3v1h-1V3H5v1H4V3H1v2zm10.5 2q1.223 0 2.254.607t1.638 1.638.607 2.254-.607 2.254-1.638 1.638-2.254.607-2.254-.607-1.638-1.638-.607-2.254.607-2.254 1.638-1.638T11.5 7zm0 8q.946 0 1.75-.473t1.277-1.277T15 11.5t-.473-1.75-1.277-1.277T11.5 8t-1.75.473T8.473 9.75 8 11.5t.473 1.75 1.277 1.277T11.5 15zm.5-3h-1V9h1v3zm-.5.893q.259 0 .442.179t.183.438-.183.442-.442.183-.438-.183-.179-.442.183-.438.433-.179z"/></svg>