<svg id="Layer_1" data-name="Layer 1" xmlns="http://www.w3.org/2000/svg" viewBox="0 0 20 20"><path fill="#e6e6e6" d="M19.29,5.92,10,0,.71,5.92H0V20H20V5.92ZM10,2.38l5.54,3.54H4.45Zm8,11.79L13.33,17H6.67L2,14.17V7.94H18Z"/><path fill="#e6e6e6" d="M14.75,13.77a1.51,1.51,0,0,0,1.5,0,1.61,1.61,0,0,0,.55-.55,1.54,1.54,0,0,0,0-1.52,1.61,1.61,0,0,0-.55-.55,1.51,1.51,0,0,0-1.5,0,1.61,1.61,0,0,0-.55.55,1.54,1.54,0,0,0,0,1.52A1.61,1.61,0,0,0,14.75,13.77Z"/><path fill="#e6e6e6" d="M9,14.63a1.64,1.64,0,0,0,2,0,2.29,2.29,0,0,0,.73-.91,3.07,3.07,0,0,0,0-2.52,2.29,2.29,0,0,0-.73-.91,1.64,1.64,0,0,0-2,0,2.29,2.29,0,0,0-.73.91,3.08,3.08,0,0,0,0,2.52A2.29,2.29,0,0,0,9,14.63Z"/><path fill="#e6e6e6" d="M3.75,13.76a1.44,1.44,0,0,0,1.5,0,1.43,1.43,0,0,0,.55-.54,1.54,1.54,0,0,0,.2-.76,1.5,1.5,0,0,0-.75-1.31,1.51,1.51,0,0,0-1.5,0,1.61,1.61,0,0,0-.55.55,1.51,1.51,0,0,0-.2.76,1.54,1.54,0,0,0,.2.76A1.5,1.5,0,0,0,3.75,13.76Z"/></svg>