<svg data-name="Layer 1" xmlns="http://www.w3.org/2000/svg" viewBox="0 0 16 16"><path d="M8 16a7.78 7.78 0 0 1-4-1.08A8 8 0 0 1 1.08 12 7.78 7.78 0 0 1 0 8a7.78 7.78 0 0 1 1.08-4A8 8 0 0 1 4 1.08 7.78 7.78 0 0 1 8 0a7.78 7.78 0 0 1 4 1.08A8 8 0 0 1 14.92 4 7.78 7.78 0 0 1 16 8a7.78 7.78 0 0 1-1.08 4A8 8 0 0 1 12 14.92 7.78 7.78 0 0 1 8 16zm0-1.07a6.77 6.77 0 0 0 3.48-.93A6.92 6.92 0 0 0 14 11.48 6.77 6.77 0 0 0 14.93 8 6.77 6.77 0 0 0 14 4.52 6.92 6.92 0 0 0 11.48 2 6.77 6.77 0 0 0 8 1.07 6.77 6.77 0 0 0 4.52 2 6.92 6.92 0 0 0 2 4.52 6.77 6.77 0 0 0 1.07 8 6.77 6.77 0 0 0 2 11.48 6.92 6.92 0 0 0 4.52 14a6.77 6.77 0 0 0 3.48.93zm-.63-3.2l4.32-7.46-.93-.54-3.84 6.65-1.8-3.1-.93.54 2.27 3.91z" fill="#586d87"/></svg>