<svg xmlns="http://www.w3.org/2000/svg" viewBox="0 0 32 32"><path fill="#586d87" d="M32 2.133V32H0V2.133h8.533V0h2.133v2.133h10.667V0h2.133v2.133zm-2.133 2.134h-6.4V6.4h-2.133V4.267H10.667V6.4H8.534V4.267h-6.4v4.267h27.733zm0 6.4H2.134v19.2h27.733zM14.533 23.2a.951.951 0 0 0 .4-.776v-.025.001l.001-.045a.98.98 0 0 0-.333-.736l-.001-.001a1.371 1.371 0 0 0-.927-.285h.004-1.467V19.2h1.467l.059.001c.33 0 .63-.127.853-.335l-.001.001c.212-.196.344-.475.344-.785v-.041c0-.3-.145-.566-.369-.733l-.002-.002a1.488 1.488 0 0 0-.948-.266h.004-.024c-.362 0-.711.059-1.037.167l.023-.007c-.408.152-.76.331-1.087.546l.02-.012-.875-1.792a5.163 5.163 0 0 1 3.035-1.008h.056c.619 0 1.203.148 1.719.41l-.022-.01c.51.258.925.638 1.219 1.102l.007.013c.281.448.448.993.448 1.577v.055-.003.009c0 .455-.131.88-.358 1.238l.006-.01c-.24.38-.556.691-.929.918l-.012.007a2.403 2.403 0 0 1 1.293 2.274v-.006a2.76 2.76 0 0 1-1.013 2.263l-.005.004a4.03 4.03 0 0 1-2.676.837h.009l-.122.001a5.542 5.542 0 0 1-1.517-.211l.039.009a6.055 6.055 0 0 1-1.442-.692l.023.014.933-1.885c.311.197.67.371 1.048.503l.037.011c.293.096.63.152.981.152h.012-.001a1.836 1.836 0 0 0 1.129-.308l-.007.004zm6.8 2.4H19.2V14.933h2.133z"/></svg>