
<svg version="1.1" id="Layer_1" xmlns="http://www.w3.org/2000/svg" xmlns:xlink="http://www.w3.org/1999/xlink" x="0px" y="0px"
	 viewBox="0 0 20 20" style="enable-background:new 0 0 20 20;" xml:space="preserve">

<path fill="#e6e6e6" d="M5,0h2v4H5V0z M13,0h2v4h-2V0z M20,2v18H0V2h4v3h4V2h4v3h4V2C16,2,20,2,20,2z M18,7H2v11h16C18,18,18,7,18,7z
	 M7.1,14.3c0.3,0,0.5,0,0.6-0.1C7.9,14.1,8,14,8,13.9c0-0.1-0.1-0.3-0.2-0.3c-0.1-0.1-0.3-0.1-0.5-0.1H6.1v-1.8h1.2
	c0.2,0,0.4,0,0.5-0.1C7.9,11.5,8,11.3,8,11.2c0-0.1-0.1-0.3-0.2-0.3c-0.1-0.1-0.3-0.1-0.5-0.1c-0.5,0-1,0.1-1.5,0.4L5,9.6
	c0.3-0.2,0.7-0.4,1.1-0.5C6.5,9,7,8.9,7.4,8.9c0.5,0,1,0.1,1.4,0.3c0.4,0.2,0.7,0.4,0.9,0.7C9.9,10.3,10,10.6,10,11
	c0,0.7-0.3,1.2-0.9,1.5C9.7,12.8,10,13.3,10,14c0,0.4-0.1,0.8-0.3,1.1s-0.6,0.6-1,0.7c-0.4,0.2-0.9,0.3-1.5,0.3
	c-0.5,0-0.9-0.1-1.2-0.2c-0.4-0.1-0.8-0.3-1.1-0.5l0.8-1.6c0.2,0.1,0.4,0.2,0.7,0.3S6.9,14.3,7.1,14.3L7.1,14.3z M14,16h-2V9h2V16z"
	/>
</svg>
