
<svg version="1.1" id="Layer_1" xmlns="http://www.w3.org/2000/svg" xmlns:xlink="http://www.w3.org/1999/xlink" x="0px" y="0px"
	 viewBox="0 0 20 20" style="enable-background:new 0 0 20 20;" xml:space="preserve">
<path fill="#e6e6e6" d="M11.8,5.9l-5.8,10H0v-2h4.9l5.8-10h5.5l-1.5-1.5L16.1,1L20,4.9l-3.9,3.9l-1.4-1.4l1.5-1.5H11.8z M4.9,5.9H0v-2
	h6.1l1.7,3l-1.2,2C6.7,8.9,4.9,5.9,4.9,5.9z M20,14.9l-3.9,3.9l-1.4-1.4l1.5-1.5h-5.5L9,13l1.2-2l1.7,3h4.3l-1.5-1.5l1.4-1.4
	C16.1,11,20,14.9,20,14.9z"/>
</svg>
