<svg xmlns="http://www.w3.org/2000/svg" viewBox="0 0 16 16"><path fill="#586d87" d="M16 9.5V13h-1q0 .545-.268 1.004t-.728.728T13 15t-1.004-.268-.728-.728T11 13H9q0 .545-.268 1.004t-.728.728T7 15t-1.004-.268-.728-.728T5 13q0-.536.286-.996t.75-.732T7 11q.545 0 1.009.272t.723.728h2.536q.268-.455.728-.728T13 11q.67 0 1.121.263t.674.737H15V9.92L13.08 8H12v3H0V4h12v3h1.5L16 9.5zM11 5H1v5h10V5zm-8 6q.545 0 1.004.268t.728.728T5 13t-.268 1.004-.728.728T3 15t-1.004-.268-.728-.728T1 13q0-.536.286-.996t.75-.732T3 11zm0 3q.42 0 .71-.295T4 13q0-.42-.29-.71T3 12q-.411 0-.705.29T2 13q0 .411.295.705T3 14zm4 0q.42 0 .71-.295T8 13q0-.42-.29-.71T7 12q-.411 0-.705.29T6 13q0 .411.295.705T7 14zm6 0q.42 0 .71-.295T14 13q0-.42-.29-.71T13 12q-.411 0-.705.29T12 13q0 .411.295.705T13 14z"/></svg>