
<svg version="1.1" id="Layer_1" xmlns="http://www.w3.org/2000/svg" xmlns:xlink="http://www.w3.org/1999/xlink" x="0px" y="0px"
	 viewBox="0 0 20 20" style="enable-background:new 0 0 20 20;" xml:space="preserve">
<path fill="#e6e6e6" d="M20,4V1h-2V0H0v20h18v-1h2v-3h-2v-2h2v-3h-2V9h2V6h-2V4H20z M16,18H2V5h14V18z"/>
<circle fill="#e6e6e6" cx="9" cy="9.5" r="2.5"/>
<g>
	<path fill="#e6e6e6" d="M11.9,11.5L11.9,11.5C11.2,12.4,10.2,13,9,13c-1.2,0-2.3-0.6-2.9-1.6c-0.8,0.2-1.4,0.5-2.1,0.9V16h10v-3.6
		C13.3,12,12.6,11.7,11.9,11.5z"/>
</g>
<circle fill="#e6e6e6" cx="9" cy="9.5" r="2.5"/>
</svg>
