<svg xmlns="http://www.w3.org/2000/svg" viewBox="0 0 32 32"><path fill="#586d87" d="M14.518 30q.893 1.089 2.143 2H0V0h26v12.411q-.946-.268-2-.375V2h-8v10.768l-5-2.911-5 2.911V2H2v28h12.518zM8 2v7.429l3-1.768 3 1.768V2H8zm15.232 12q1.339 0 2.429.563t1.714 1.571.625 2.313q0 2.518-2.268 4.232-.911.679-1.321 1.429T24 26.001h-2q0-1.571.491-2.571T24 21.698q.964-.696 1.482-1.482T26 18.448q0-1.161-.786-1.857t-1.982-.696q-1 0-1.893.437t-1.446 1.045l-1.25-1.339q.732-.786 1.911-1.411t2.679-.625zM23 29.518q.518 0 .884.357t.366.875-.366.884T23 32t-.875-.366-.357-.884q0-.5.366-.866t.866-.366z"/></svg>