<svg xmlns="http://www.w3.org/2000/svg" viewBox="0 0 16 16"><path d="M1 0h10l3 3v13H1V0zm12 15V3.5L10.5 1H2v14h11z" fill="#596e87"/><path d="M9.8 4.6c2.2 1.2 2.9 4 1.7 6.1s-4 2.9-6.1 1.7h-.1c-.7-.4-1.3-1-1.6-1.7-1.3-2-.7-4.7 1.4-6 .1 0 .1-.1.2-.1 1.4-.8 3.1-.8 4.5 0zm-5.6 5c.1.4.3.7.5 1l4.9-4.9c-.3-.2-.6-.4-1-.5-.4-.1-.8-.2-1.1-.2-.7 0-1.3.1-1.8.5-.5.3-.9.7-1.2 1.3-.5.8-.6 1.8-.3 2.8zm5.1 1.9c.5-.3 1-.8 1.3-1.3s.5-1.1.4-1.7c0-.4-.1-.8-.2-1.2-.1-.4-.3-.7-.5-1l-4.9 5c.3.2.6.4 1 .5 1 .3 2 .2 2.9-.3z" fill="#5a6f87"/></svg>