<svg xmlns="http://www.w3.org/2000/svg" viewBox="0 0 16 16"><path fill="#586d87" d="M12.259 7.616q2 .58 3.741 1.696V16h-2.348q-.357-.991-1-1.786l-1.875.902q.402.375.696.884h-1.232q-.42-.473-1-.737T8 15t-1.241.263-1 .737H4.527q.295-.509.723-.911l-1.875-.902Q2.696 15 2.339 16H0V9.312q1.732-1.107 3.741-1.696-.357-.58-.549-1.246T3 4.999q0-1.357.674-2.504T5.495.674 7.999 0t2.504.674 1.821 1.821.674 2.504q0 .705-.192 1.371t-.549 1.246zM8 1q-1.089 0-2.009.536T4.536 2.991 4 5t.536 2.009 1.455 1.455T8 9t2.009-.536 1.455-1.455T12 5t-.536-2.009-1.455-1.455T8 1zm7 8.884q-1.589-.938-3.393-1.42l.134-.152q-.696.795-1.67 1.241T8 9.999q-1.045 0-1.978-.406T4.401 8.464q-1.813.473-3.402 1.42V15h.679q.58-1.214 1.545-2.121t2.192-1.393T8 10.999t2.598.5 2.205 1.406 1.527 2.094H15V9.883zM8 14q.991 0 1.866.464l2.063-1q-.813-.705-1.821-1.085T8.001 12q-1.08 0-2.08.375t-1.804 1.063l2.063 1Q7.037 14 8.001 14z"/></svg>