<svg id="Layer_1" data-name="Layer 1" xmlns="http://www.w3.org/2000/svg" viewBox="0 0 20 20"><defs>></defs><path d="M13.2,17.85l-2.08-2.37a1.43,1.43,0,0,0,.38-1,1.5,1.5,0,0,0-3,0,1.43,1.43,0,0,0,.38,1L6.8,17.85l-.74-6.73c-1,.3-3.06,1.23-3.06,1.23V20H17V12.35a22.31,22.31,0,0,0-3.07-1.22Z" fill="black"/><path  d="M8.31,11.44a3.4,3.4,0,0,0,3.38,0,3.45,3.45,0,0,0,1.23-1.23,3.36,3.36,0,0,0,.46-1.7,3.4,3.4,0,0,0-1.69-2.92A3.37,3.37,0,0,0,7.08,6.82a3.32,3.32,0,0,0-.46,1.69,3.36,3.36,0,0,0,.46,1.7A3.45,3.45,0,0,0,8.31,11.44Z" fill="black"/><path class="cls-1" d="M10,0A9,9,0,0,0,1.23,7H2.78A7.49,7.49,0,0,1,17.22,7h1.55A9,9,0,0,0,10,0Z" fill="black"/></svg>
