
<svg version="1.1" id="Layer_1" xmlns="http://www.w3.org/2000/svg" xmlns:xlink="http://www.w3.org/1999/xlink" x="0px" y="0px"
	 viewBox="0 0 20 20" style="enable-background:new 0 0 20 20;" xml:space="preserve">
<rect x="9" y="7" fill="#e6e6e6" width="6" height="2"/>
<rect x="9" y="12" fill="#e6e6e6" width="6" height="2"/>
<rect x="5" y="7" fill="#e6e6e6" width="2" height="2"/>
<rect x="5" y="12" fill="#e6e6e6" width="2" height="2"/>
<path fill="#e6e6e6" d="M18.3,5.3c-0.9-1.3-2.1-2.4-3.6-3.2C13.3,1.4,11.6,1,10,1C8.4,1,6.7,1.4,5.3,2.2C3.9,2.9,2.6,4,1.7,5.4
	C0.8,6.8,0.2,8.3,0,10h2.1c0.6-4.4,4.6-7.5,9-6.9c3.6,0.5,6.4,3.3,6.9,6.9H20C19.8,8.3,19.2,6.7,18.3,5.3z"/>
<rect x="9" y="17" fill="#e6e6e6" width="6" height="2"/>
<rect x="5" y="17" fill="#e6e6e6" width="2" height="2"/>
</svg>
