<svg data-name="Layer 1" xmlns="http://www.w3.org/2000/svg" viewBox="0 0 16 16"><path d="M12.93.09H8.19a5.57 5.57 0 0 1 1 1h3.21L15 3.56V15H3.72v-5a6.61 6.61 0 0 1-1-.25V16H16V3.07z" fill="#586d87"/><path d="M8.14 5a3.46 3.46 0 0 1-.62 1.45l.67.84-.64.61-.86-.6a3.53 3.53 0 0 1-1.5.61L5.05 9h-.89L4 7.91a3.53 3.53 0 0 1-1.5-.61l-.84.7L1 7.34l.66-.85A3.3 3.3 0 0 1 1.07 5L0 4.9V4l1.07-.1a3.33 3.33 0 0 1 .63-1.45L1 1.62 1.67 1l.86.65A3.68 3.68 0 0 1 4 1l.15-1h.89l.14 1a3.72 3.72 0 0 1 1.49.6l.88-.6.63.62-.67.82a3.59 3.59 0 0 1 .63 1.46l1.07.1v.9zM6.82 3.23a2.54 2.54 0 0 0-.93-.91A2.57 2.57 0 0 0 4.61 2a2.58 2.58 0 0 0-1.29.33 2.54 2.54 0 0 0-.93.91 2.37 2.37 0 0 0-.34 1.25 2.34 2.34 0 0 0 .34 1.24 2.46 2.46 0 0 0 .93.91A2.58 2.58 0 0 0 4.61 7a2.57 2.57 0 0 0 1.28-.33 2.46 2.46 0 0 0 .93-.91 2.34 2.34 0 0 0 .34-1.24 2.37 2.37 0 0 0-.34-1.29zm5.55 4.3v-.88h-2.3a4.74 4.74 0 0 1-.46.86zM8 9.23h4.42v-.85H8.94a5.36 5.36 0 0 1-.94.85zm-1.53.86h5.9v.85h-5.9z" fill="#586d87"/></svg>