<?xml version="1.0" encoding="utf-8"?>
<!-- Generator: Adobe Illustrator 22.1.0, SVG Export Plug-In . SVG Version: 6.00 Build 0)  -->
<svg version="1.1" id="Layer_1" xmlns="http://www.w3.org/2000/svg" xmlns:xlink="http://www.w3.org/1999/xlink" x="0px" y="0px"
	 viewBox="0 0 16 16" style="enable-background:new 0 0 16 16;" xml:space="preserve">
<style type="text/css">
	.st0{fill:#586D87;}
</style>
<path class="st0" d="M12.3,7.6c0.2-0.4,0.4-0.8,0.5-1.2C12.9,5.9,13,5.5,13,5c0-0.9-0.2-1.7-0.7-2.5c-0.4-0.8-1.1-1.4-1.8-1.8
	C9.7,0.2,8.9,0,8,0S6.3,0.2,5.5,0.7c-0.8,0.4-1.4,1-1.8,1.8C3.2,3.3,3,4.1,3,5c0,0.5,0.1,0.9,0.2,1.4c0.1,0.4,0.3,0.9,0.5,1.2
	C2.4,8,1.2,8.6,0,9.3V16h16V9.3C14.8,8.6,13.6,8,12.3,7.6z M11.5,3C11.8,3.6,12,4.2,12,4.9L6.1,1.5C6.7,1.2,7.3,1,8,1
	C9.4,1,10.7,1.8,11.5,3z M4.5,3c0.2-0.3,0.4-0.6,0.7-0.8L11.9,6c-0.1,0.3-0.2,0.7-0.4,1c-0.7,1.2-2,2-3.5,2C6.6,9,5.3,8.2,4.5,7
	C4.2,6.4,4,5.7,4,5S4.2,3.6,4.5,3z M2,15H1V9.9c0.3-0.2,0.7-0.4,1-0.5V15z M3,15V8.9c0.5-0.2,0.9-0.3,1.4-0.4L8.2,15H3z M9.2,15
	L8,13h2c0.4,0,0.7,0.1,1,0.3s0.6,0.4,0.7,0.7c0.2,0.3,0.3,0.6,0.3,1H9.2z M15,15h-2c0-0.5-0.1-1.1-0.4-1.5c-0.3-0.5-0.6-0.8-1.1-1.1
	S10.5,12,10,12H7.4L6.1,9.6C6.7,9.9,7.3,10,8,10s1.4-0.2,2.1-0.5c0.6-0.3,1-0.5,1.5-1l0.1,0c1.2,0.3,2.3,0.8,3.4,1.4V15H15z"/>
</svg>
