<svg id="Layer_1" data-name="Layer 1" xmlns="http://www.w3.org/2000/svg" viewBox="0 0 20 20"><path fill="#e6e6e6" d="M0,16H2A9.92,9.92,0,0,1,.52,13.19,9.74,9.74,0,0,1,0,10,9.79,9.79,0,0,1,1.34,5,10,10,0,0,1,5,1.34,9.79,9.79,0,0,1,10,0a9.79,9.79,0,0,1,5,1.34A10,10,0,0,1,18.66,5,9.79,9.79,0,0,1,20,10a9.79,9.79,0,0,1-1.34,5A10,10,0,0,1,15,18.66,9.79,9.79,0,0,1,10,20V18a7.78,7.78,0,0,0,4-1.08A7.89,7.89,0,0,0,16.92,14,7.78,7.78,0,0,0,18,10a7.78,7.78,0,0,0-1.08-4A8,8,0,0,0,14,3.08,7.78,7.78,0,0,0,10,2,7.78,7.78,0,0,0,6,3.08,8,8,0,0,0,3.08,6,7.78,7.78,0,0,0,2,10a7.87,7.87,0,0,0,.52,2.85A8.19,8.19,0,0,0,4,15.3V12.55H6V18H0V16ZM11,6v4.85l2.89,1.67-1,1.73L9,12V6Z" transform="translate(0 0)"/></svg>