<svg id="Layer_1" data-name="Layer 1" xmlns="http://www.w3.org/2000/svg" viewBox="0 0 20 19.97"><polygon fill="#e6e6e6" points="0 0 0 13 2 13 2 11 2 2 18 2 18 11 18 12 20 12 20 0 0 0"/><path fill="#e6e6e6" d="M14.75,7.81a1.51,1.51,0,0,0,1.5,0,1.43,1.43,0,0,0,.55-.54,1.53,1.53,0,0,0,0-1.51,1.43,1.43,0,0,0-.55-.54,1.51,1.51,0,0,0-1.5,0,1.43,1.43,0,0,0-.55.54,1.53,1.53,0,0,0,0,1.51A1.43,1.43,0,0,0,14.75,7.81Z" transform="translate(0 -0.01)"/><path fill="#e6e6e6" d="M9,8.68a1.68,1.68,0,0,0,2,0,2.32,2.32,0,0,0,.73-.92A2.89,2.89,0,0,0,12,6.51a2.93,2.93,0,0,0-.27-1.25A2.36,2.36,0,0,0,11,4.35a1.64,1.64,0,0,0-2,0,2.36,2.36,0,0,0-.73.91A2.93,2.93,0,0,0,8,6.51a2.89,2.89,0,0,0,.27,1.25A2.32,2.32,0,0,0,9,8.68Z" transform="translate(0 -0.01)"/><path fill="#e6e6e6" d="M3.75,7.81A1.38,1.38,0,0,0,4.5,8a1.38,1.38,0,0,0,.75-.2,1.43,1.43,0,0,0,.55-.54,1.51,1.51,0,0,0-.55-2.06,1.51,1.51,0,0,0-1.5,0,1.53,1.53,0,0,0-.55.55,1.53,1.53,0,0,0,0,1.51A1.43,1.43,0,0,0,3.75,7.81Z" transform="translate(0 -0.01)"/><path fill="#e6e6e6" d="M17.73,16.34a5.76,5.76,0,0,0-.52-2.46,6.68,6.68,0,0,0-8.36-2.22s-.58.34-1,.61-1,.75-1,.75A6.87,6.87,0,0,0,5.21,16a7.7,7.7,0,0,0-.15,1l0,0L2,18v2H18.06c.07-.19.13-.37.18-.56V17.72l-.51-1Zm-4-1.49A3.47,3.47,0,0,0,8.05,17h-1a4.47,4.47,0,0,1,7.41-2.87Z" transform="translate(0 -0.01)"/></svg>