<svg xmlns="http://www.w3.org/2000/svg" viewBox="0 0 16 16"><path fill="#586d87" d="M3.152 9.607l-.866-.509 4.438-7.643 4.33 2.5-.491.875-3.464-2-3.946 6.777zM15.5 4.054l-1.643-.946-4.063 7.036q-.321-.339-.795-.607l4.5-7.795 2.5 1.446-.5.866zM.938 9.5L3.527 11q-.259.455-.393.929L.438 10.366l.5-.866zM7 10q.821 0 1.509.402t1.089 1.089T10 13q0 .804-.406 1.496t-1.098 1.098T7 16q-.821 0-1.509-.402t-1.089-1.089T4 13t.402-1.509 1.089-1.089T7 10zm0 5q.536 0 .996-.272t.732-.732T9 13q0-.545-.272-1.004T8 11.268 7 11t-1 .268-.728.728T5 13q0 .536.272.996t.732.732T7 15z"/></svg>