<svg id="Layer_1" data-name="Layer 1" xmlns="http://www.w3.org/2000/svg" viewBox="0 0 20 20"><polygon points="11 18 11 16 2 16 2 18 0 18 0 20 13.01 20 13.01 18 11 18" fill="#e6e6e6"/><polygon points="4.3 6.9 2.84 8.28 6.26 11.92 7.72 10.55 5.87 8.57 4.3 6.9" fill="#e6e6e6"/><polygon points="11.55 0.03 10.09 1.41 11.72 3.15 13.52 5.06 14.97 3.69 11.55 0.03" fill="#e6e6e6"/><polygon points="5.04 6.2 8.44 9.81 9.55 8.81 17.74 17.51 18.84 16.51 19.94 15.5 11.75 6.71 12.85 5.71 9.44 2.1 7.39 4.01 5.04 6.2" fill="#e6e6e6"/></svg>