
<svg version="1.1" id="Layer_1" xmlns="http://www.w3.org/2000/svg" xmlns:xlink="http://www.w3.org/1999/xlink" x="0px" y="0px"
	 viewBox="0 0 20 20" style="enable-background:new 0 0 20 20;" xml:space="preserve">
<path fill="#e6e6e6" d="M9.5,20c-1.6-1.9-2.9-3.6-3.8-5.1S4,12,3.6,10.7C3.2,9.5,3,8.2,3,7c0-1.3,0.3-2.4,0.9-3.5s1.5-1.9,2.5-2.5
	S8.7,0,10,0s2.4,0.3,3.5,0.9s1.9,1.5,2.5,2.5C16.7,4.6,17,5.7,17,7c0,1.2-0.2,2.5-0.6,3.8c-0.4,1.3-1.1,2.6-2,4.1s-2.2,3.2-3.8,5.1
	L9.5,20L9.5,20z M10,17.5c1.2-1.5,2.2-2.8,2.9-4c0.7-1.2,1.3-2.3,1.6-3.4C14.8,9,15,8,15,7c0-0.9-0.2-1.7-0.7-2.5s-1.1-1.4-1.8-1.8
	C11.7,2.2,10.9,2,10,2C9.1,2,8.3,2.2,7.5,2.7C6.7,3.1,6.1,3.7,5.7,4.5C5.2,5.3,5,6.1,5,7c0,1,0.2,2,0.5,3.1c0.3,1,0.9,2.2,1.6,3.4
	S8.8,16,10,17.5L10,17.5z M10,10c-0.5,0-1.1-0.1-1.5-0.4C8,9.3,7.7,9,7.4,8.5C7.1,8.1,7,7.5,7,7C7,6.5,7.1,6,7.4,5.5
	C7.7,5,8,4.7,8.5,4.4C8.9,4.1,9.5,4,10,4c0.5,0,1.1,0.1,1.5,0.4C12,4.7,12.3,5,12.6,5.5C12.9,6,13,6.5,13,7s-0.1,1.1-0.4,1.5
	C12.3,9,12,9.3,11.5,9.6C11.1,9.9,10.5,10,10,10z"/>
</svg>
