<svg xmlns="http://www.w3.org/2000/svg" viewBox="0 0 16 16"><path fill="#586d87" d="M8 9q-1.08 0-2-.54T4.54 7 4 5t.54-2T6 1.54 8 1t2 .54T11.46 3 12 5t-.54 2T10 8.46 8 9zm0-1q.821 0 1.509-.402t1.089-1.089T11 5t-.402-1.509-1.089-1.089T8 2t-1.509.402-1.089 1.089T5 5t.402 1.509 1.089 1.089T8 8zm-.634 1.955Q7.545 10 8 10q.357 0 .527-.036l2.054 3.554.857-1.518h1.723l-1.875-3.241q.161-.125.375-.357T12 7.991L14.902 13h-2.893l-1.438 2.509-3.205-5.554zM3.991 13H1.098L4 8q.116.161.33.393t.384.375L2.848 12h1.723l.857 1.527 1.438-2.491.58 1-2.018 3.473L3.99 13z"/></svg>