<svg xmlns="http://www.w3.org/2000/svg" viewBox="0 0 16 16"><path fill="#586d87" d="M1 9h5.759l-.321 1H0V6.259q.786-.634 1.714-1.054t1.946-.589q-.536-.339-.848-.897T2.499 2.5q0-.679.335-1.254t.911-.911T4.999 0t1.254.335.911.911.335 1.254q0 .661-.313 1.219t-.848.888q1.009.17 1.937.589T9.998 6.25v1.348L9.346 9h-.348V6.759q-.884-.625-1.897-.942T4.998 5.5q-1.08 0-2.103.321t-1.897.938V9zm12.214-5.411q1.446.223 2.786.982V8h-3.054l-.464-1H15V5.179Q13.589 4.5 12 4.5q-1.152 0-2.223.357-.563-.339-1.196-.616.946-.473 2.196-.661-.366-.277-.571-.692T10.001 2q0-.545.268-1.004t.728-.728T12.001 0t1.004.268.728.728T14.001 2q0 .482-.21.893t-.576.696zM5 1q-.411 0-.754.201t-.545.545T3.5 2.5t.201.754.545.545T5 4t.754-.201.545-.545T6.5 2.5t-.201-.754-.545-.545T5 1zm7 0q-.411 0-.705.29T11 2q0 .411.295.705T12 3q.42 0 .71-.295T13 2q0-.42-.29-.71T12 1zm4 9.429l-2.393 2.33.527 3.241-2.75-1.518L8.634 16l.536-3.241-2.402-2.33 3.259-.491L11.384 7l1.357 2.938 3.259.491zm-3.518 1.973l1.393-1.125-1.723-.232-.768-1.661-.768 1.661-1.714.232 1.393 1.134-.304 1.732 1.384-.777 1.411.777-.304-1.741z"/></svg>