<svg data-name="Layer 1" xmlns="http://www.w3.org/2000/svg" viewBox="0 0 16 16"><path d="M12.92 10.81l-3.06-.46L8.58 7.6 7.3 10.35l-3.07.46L6.49 13 6 16l2.59-1.43L11.17 16l-.5-3zm-4.35 2.76l-1.3.73.28-1.63-1.31-1.06 1.62-.22.72-1.56.72 1.56 1.62.22-1.31 1.05.29 1.64z" fill="#586d87"/><path d="M5 15.06H.94V.94h1.88V6l2.36-1.38L7.53 6V.94h3.77V5h.94V0H0v16h5zM3.77.94h2.82v3.48l-1.41-.83-1.41.83zm8.74 13.23a3.05 3.05 0 0 0 1-.37 3 3 0 0 0 .08-5.09v1.1h-1V7h2.93v1h-1.2a4 4 0 0 1-.82 6.91 3.69 3.69 0 0 1-1 .27z" fill="#586d87"/></svg>