<svg xmlns="http://www.w3.org/2000/svg" viewBox="0 0 16 16"><path fill="#586d87" d="M1 15h6.777l-.161 1H0V9.312q1.732-1.107 3.741-1.696Q3 6.428 3 5q0-1.357.674-2.504T5.495.675 7.999.001t2.504.674 1.821 1.821T12.998 5q0 .795-.259 1.589L11.998 5q0-1.089-.536-2.009t-1.455-1.455T7.998 1t-2.009.536-1.455 1.455T3.998 5q0 1.313.768 2.353t2.045 1.656l-1.464.223q-.5-.304-.946-.768-1.813.473-3.402 1.42V15zm12.607-2.241L14.134 16l-2.75-1.518L8.634 16l.536-3.241-2.402-2.33 3.259-.491L11.384 7l1.357 2.938 3.259.491-2.393 2.33zm-.821 1.384l-.304-1.741 1.393-1.125-1.723-.232-.768-1.661-.768 1.661-1.714.232 1.393 1.134-.304 1.732 1.384-.777 1.411.777z"/></svg>