<svg xmlns="http://www.w3.org/2000/svg" viewBox="0 0 16 16"><path fill="#586d87" d="M7.259 15q.446.545 1.071 1H6v.027H0v-16h13v6.179q-.473-.134-1-.188V1.027H8v5.384L5.5 4.956 3 6.411V1.027H1v14h4V15h2.259zM4 1.027v3.714l1.5-.884 1.5.884V1.027H4zM11.5 7q1.223 0 2.254.607t1.638 1.638.607 2.254-.607 2.254-1.638 1.638-2.254.607-2.254-.607-1.638-1.638-.607-2.254.607-2.254 1.638-1.638T11.5 7zm0 8q.946 0 1.75-.473t1.277-1.277T15 11.5t-.469-1.75-1.272-1.277T11.5 8q-.946 0-1.75.473T8.473 9.75 8 11.5t.473 1.75 1.277 1.277T11.5 15zm2.125-4.911L12.214 11.5l1.411 1.411-.714.714-1.411-1.411-1.411 1.411-.714-.714 1.411-1.411-1.411-1.411.714-.714 1.411 1.411 1.411-1.411.714.714z"/></svg>