<svg id="Layer_1" data-name="Layer 1" xmlns="http://www.w3.org/2000/svg" viewBox="0 0 16 16"><title>non_renewal-2</title><path d="M15.43,10A4.08,4.08,0,0,0,14,8.57a3.93,3.93,0,0,0-4,0A4.08,4.08,0,0,0,8.57,10a3.93,3.93,0,0,0,0,4A4.08,4.08,0,0,0,10,15.43a3.93,3.93,0,0,0,4,0A4.08,4.08,0,0,0,15.43,14,3.93,3.93,0,0,0,15.43,10Zm-5.9,3.83A3.17,3.17,0,0,1,9.08,13a2.83,2.83,0,0,1-.16-1,3.09,3.09,0,0,1,.41-1.54,3.22,3.22,0,0,1,1.13-1.13A3.06,3.06,0,0,1,13,9.08a2.83,2.83,0,0,1,.86.45Zm5.14-.3a3.22,3.22,0,0,1-1.13,1.13,3.08,3.08,0,0,1-3.38-.2l4.31-4.31a3.36,3.36,0,0,1,.45.86A3.09,3.09,0,0,1,14.67,13.53Z" fill="#586d87"/><path d="M12,7a5.67,5.67,0,0,1,1,.18V0H0V16H3V15H1V1H3V6.38L5.5,4.93,8,6.38V1h4ZM7,4.71,5.5,3.83,4,4.71V1H7Z" fill="#586d87"/><path d="M6.83,8H3.29v.89H5.06A4.46,4.46,0,0,0,5.18,16V14.6a3.45,3.45,0,0,1,.34-4.87,3.25,3.25,0,0,1,.42-.31v2.07h.9V8Z" fill="#586d87"/></svg>