<svg data-name="Layer 1" xmlns="http://www.w3.org/2000/svg" viewBox="0 0 16 16"><path d="M8.33 16H0V0h13v6.21A5.36 5.36 0 0 0 12 6V1H8v5.38L5.5 4.93 3 6.38V1H1v14h6.26a5.7 5.7 0 0 0 1.07 1zM4 1v3.71l1.5-.88 1.5.88V1zm9.75 6.61a4.45 4.45 0 0 1 1.64 1.64 4.45 4.45 0 0 1 0 4.5 4.45 4.45 0 0 1-1.64 1.64 4.45 4.45 0 0 1-4.5 0 4.45 4.45 0 0 1-1.64-1.64 4.45 4.45 0 0 1 0-4.5 4.45 4.45 0 0 1 1.64-1.64 4.45 4.45 0 0 1 4.5 0zm-5.57 5a3.54 3.54 0 0 0 .52 1l4.89-4.91a3.83 3.83 0 0 0-1-.52A3.4 3.4 0 0 0 11.5 8a3.45 3.45 0 0 0-1.75.47 3.57 3.57 0 0 0-1.28 1.28A3.45 3.45 0 0 0 8 11.5a3.4 3.4 0 0 0 .18 1.11zm5.07 1.92a3.65 3.65 0 0 0 1.28-1.28A3.45 3.45 0 0 0 15 11.5a3.4 3.4 0 0 0-.18-1.11 3.54 3.54 0 0 0-.52-1L9.41 14.3a3.83 3.83 0 0 0 1 .52 3.4 3.4 0 0 0 1.09.18 3.45 3.45 0 0 0 1.75-.47z" fill="#586d87"/></svg>