<svg data-name="Layer 1" xmlns="http://www.w3.org/2000/svg" viewBox="0 0 16 16"><path d="M0 0v16h6.33v-1H1V1h2v5.35L5.5 4.9 8 6.35V1h4v4a6.32 6.32 0 0 1 1 .18V0zm7 4.7l-1.5-.9-1.5.88V1h3zm7.76 9.77l-.71-.71-.29-.29.99-.99.88-.88-.63-.63-.13.13-1.74 1.75-1.88-1.87-.63.63 1.88 1.87-1.47 1.48-.4.39.63.62.01.01v-.01l1.15-1.14.72-.72.26.26.71.7.91.9.62-.63-.88-.87z" fill="#db5345"/><path d="M8.77 13.77a3.48 3.48 0 0 1 4.75-5l-2 .56.24.86 2.47-.7.94-.27-.06-.22-.9-3.17-.85.17.48 1.69a4.52 4.52 0 0 0-5.61.61 4.47 4.47 0 0 0-.17 6.14c.06.06.11.14.17.2a4.29 4.29 0 0 0 1.15.81l.82-.73A3.28 3.28 0 0 1 8.94 14c-.06-.09-.11-.16-.17-.23z" fill="#db5345"/></svg>