<svg xmlns="http://www.w3.org/2000/svg" viewBox="0 0 16 16"><path fill="#586d87" d="M7.259 15q.473.571 1.08 1H0V2h4V1h1v1h5V1h1v1h4v5.259q-.455-.375-1-.661V6H1v9h6.259zM1 5h13V3h-3v1h-1V3H5v1H4V3H1v2zm10.5 1.991q1.223 0 2.254.607t1.638 1.638.607 2.254-.607 2.254-1.638 1.638-2.254.607-2.254-.607-1.638-1.638-.607-2.254.607-2.254 1.638-1.638 2.254-.607zm0 8q.946 0 1.75-.473t1.277-1.277.473-1.75-.473-1.75-1.277-1.277-1.75-.473-1.75.473-1.277 1.277T8 11.491q0 .955.473 1.759t1.277 1.272 1.75.469zm2.5-4v1l-2.071 2.071-.705-.705 1.366-1.366H9.001v-1h3.589l-1.366-1.366.705-.705L14 10.991z"/></svg>