<svg data-name="Layer 1" xmlns="http://www.w3.org/2000/svg" viewBox="0 0 16 16"><path d="M1 7.49H0A7.9 7.9 0 0 1 .43 5.4l.93.39A6.58 6.58 0 0 0 1 7.49zm1 4.15A7 7 0 0 0 4.35 14a6.85 6.85 0 0 0 3.15 1v1a7.79 7.79 0 0 1-3.65-1.14 8 8 0 0 1-2.69-2.7A7.57 7.57 0 0 1 0 8.49h1a6.69 6.69 0 0 0 1 3.15zm-.26-6.78l-.93-.39A7.74 7.74 0 0 1 2 2.7l.71.71a6.8 6.8 0 0 0-.97 1.45zm1.67-2.15L2.71 2A8.44 8.44 0 0 1 4.48.8l.39.93a7.31 7.31 0 0 0-1.46.98zm2-2.29A7.9 7.9 0 0 1 7.5 0v1a6.74 6.74 0 0 0-1.71.34zm8.38 3.65a7 7 0 0 0-2.28-2.13A6.88 6.88 0 0 0 8.5 1V0A7.85 7.85 0 0 1 12 1.08 8 8 0 0 1 15.93 7h-1a6.84 6.84 0 0 0-1.14-2.93zM16 11v5H9v-5h1V9.5a2.46 2.46 0 0 1 1.25-2.16 2.47 2.47 0 0 1 2.5 0A2.46 2.46 0 0 1 15 9.5V11zm-1 1h-5v3h5zm-4-1h3V9.5a1.48 1.48 0 0 0-.2-.75 1.53 1.53 0 0 0-.55-.55 1.51 1.51 0 0 0-1.5 0 1.53 1.53 0 0 0-.55.55 1.48 1.48 0 0 0-.2.75z" fill="#586d87"/></svg>