<svg id="Layer_1" xmlns="http://www.w3.org/2000/svg" viewBox="0 0 16 16"><path fill="#586d87" d="M10.5 15.5c-3 0-5.5-2.4-5.5-5.5s2.4-5.5 5.5-5.5S16 7 16 10s-2.4 5.5-5.5 5.5zm0-10C8 5.5 6 7.5 6 10s2 4.5 4.5 4.5 4.5-2 4.5-4.5-1.9-4.5-4.5-4.5z"/><path fill="#586d87" d="M11.1 9.6v.4l1.4 1.9-.8.6-1.6-2.1V6.5h1v3.1"/><path d="M13.1 4h.9V2h-3v1h-1V2H5v1H4V2H1v2" fill="none"/><path  fill="#586d87" d="M5.2 14H1V5h5.3c.5-.4 1.1-.8 1.7-1H1V2h3v1h1V2h5v1h1V2h3v2h-.9c.7.3 1.3.7 1.9 1.2V1h-4V0h-1v1H5V0H4v1H0v14h6.1c-.3-.3-.6-.6-.9-1z"/></svg>