<svg id="Layer_1" data-name="Layer 1" xmlns="http://www.w3.org/2000/svg" viewBox="0 0 20 20"><path fill="#e6e6e6" d="M18,6.94c-.17-.1-.36-.18-.54-.27a4,4,0,1,0-5.92,0c-.18.09-.37.17-.54.27a7.5,7.5,0,0,0-.86.62A9,9,0,0,1,11,9.44a5,5,0,0,1,7,0V11H11a8.64,8.64,0,0,1-.61,2H20V8.68A7.1,7.1,0,0,0,18,6.94ZM14.5,6a2,2,0,1,1,2-2A2,2,0,0,1,14.5,6Z"/><path fill="#e6e6e6" d="M9,13.94c-.17-.1-.36-.18-.54-.27a4,4,0,1,0-5.92,0c-.18.09-.37.17-.54.27a7.1,7.1,0,0,0-2,1.74V20H11V15.68A7.1,7.1,0,0,0,9,13.94ZM5.5,9a2,2,0,1,1-2,2A2,2,0,0,1,5.5,9ZM9,18H2V16.44a5,5,0,0,1,7,0Z"/></svg>