
<svg version="1.1" id="Layer_1" xmlns="http://www.w3.org/2000/svg" xmlns:xlink="http://www.w3.org/1999/xlink" x="0px" y="0px"
	 viewBox="0 0 20 20" style="enable-background:new 0 0 20 20;" xml:space="preserve">
<style type="text/css">
	.st0{fill:#E6E6E6;}
</style>
<rect x="12" y="1" class="st0" width="8" height="2"/>
<path fill="#e6e6e6" d="M0,5.3C0.7,5,1.3,4.7,2.1,4.4c0.3,0.5,0.7,0.9,1.2,1.1C3.8,5.9,4.4,6,5,6s1.1-0.1,1.7-0.4
	c0.5-0.3,0.9-0.7,1.2-1.1C8.6,4.7,9.3,5,10,5.3V9H0V5.3L0,5.3z"/>
<rect x="12" y="5" class="st0" width="5" height="2"/>
<rect x="12" y="12" class="st0" width="8" height="2"/>
<path fill="#e6e6e6" d="M0,16.3c0.7-0.4,1.3-0.7,2.1-0.9c0.3,0.5,0.7,0.9,1.2,1.1C3.8,16.9,4.4,17,5,17s1.1-0.1,1.7-0.4
	c0.5-0.3,0.9-0.7,1.2-1.1c0.7,0.2,1.4,0.5,2.1,0.9V20H0V16.3L0,16.3z"/>
<rect x="12" y="16" class="st0" width="5" height="2"/>
<circle fill="#e6e6e6" cx="5" cy="2.5" r="2.5"/>
<circle fill="#e6e6e6" cx="5" cy="13.5" r="2.5"/>
</svg>
