<svg xmlns="http://www.w3.org/2000/svg" viewBox="0 0 16 16"><path fill="#586d87" d="M12.259 7.616q2 .58 3.741 1.696V16H0V9.268l1.196-1.205.705-.705.67.661q.554-.223 1.17-.402-.357-.58-.549-1.246T3 5q0-1.357.674-2.504T5.495.675 7.999.001t2.504.674 1.821 1.821T12.998 5q0 .705-.192 1.371t-.549 1.246zM8 1q-1.089 0-2.009.536T4.536 2.991 4 5t.536 2.009 1.455 1.455T8 9t2.009-.536 1.455-1.455T12 5t-.536-2.009-1.455-1.455T8 1zm7 8.884q-1.589-.938-3.393-1.42l.134-.152q-.696.795-1.67 1.241T8 9.999q-1.045 0-1.978-.406T4.401 8.464q-.607.161-1.063.33l6.205 6.205h5.455V9.883zM1.902 8.768l-.696.705L6.742 15h1.393L1.903 8.768zM1 15h4.313L1 10.679V15z"/></svg>