<svg xmlns="http://www.w3.org/2000/svg" viewBox="0 0 16 16"><path fill="#586d87" d="M.634 5.857Q.33 5.473.161 4.995t-.17-.996q0-.813.406-1.504t1.094-1.094 1.5-.402q.518 0 .991.17t.866.473q-.491.214-1.027.527-.393-.17-.821-.17-.545 0-1.004.268t-.728.728T1 3.999q0 .438.179.821-.286.446-.545 1.036zm14.723 0q-.232-.563-.536-1.036.17-.393.17-.821 0-.545-.268-1.004t-.728-.728T12.991 2q-.429 0-.821.17-.482-.295-1.027-.527.384-.304.862-.473t.996-.17q.821 0 1.509.402t1.089 1.089T16.001 4q0 .518-.17.996t-.473.862zM8 16q-1.902 0-3.509-.942t-2.549-2.549T1 9q0-1.911.938-3.518t2.545-2.545 3.518-.938q1.902 0 3.509.942t2.549 2.549.942 3.509-.942 3.509-2.549 2.549-3.509.942zm0-1q1.625 0 3.004-.808t2.188-2.188T14 9t-.808-3.004-2.188-2.188T8 3t-3.004.808-2.188 2.188T2 9t.808 3.004 2.188 2.188T8 15zm2-5H8V6H7v5h3v-1z"/></svg>