<svg xmlns="http://www.w3.org/2000/svg" viewBox="0 0 16 16"><path fill="#586d87" d="M14 5H7V3H3.911q-.107.321-.348.563T3 3.911v8.179q.321.107.563.348t.348.563H7v-2h3l1 1h3v4H7v-2H3.911q-.107.321-.348.563T3 14.912v1.089H2v-1.089q-.438-.152-.719-.54T1 13.501t.281-.871.719-.54V3.911q-.438-.152-.719-.54T1 2.5t.281-.871.719-.54V0h1v1.089q.321.107.563.348T3.911 2H7V0h3l1 1h3v4zm-1-3h-2.411l-1-1H8v3h5V2zM2.5 3q.205 0 .353-.147T3 2.5t-.147-.353T2.5 2t-.353.147T2 2.5t.147.353T2.5 3zm7.5 7V7.411L8.705 8.706 8 8.001l2-2h1l2 2-.705.705L11 7.411V10h-1zm-2 5h5v-2h-2.411l-1-1H8v3zm-5.5-1q.205 0 .353-.147T3 13.5q0-.188-.156-.344T2.5 13q-.205 0-.353.147T2 13.5t.147.353T2.5 14z"/></svg>