<svg xmlns="http://www.w3.org/2000/svg" viewBox="0 0 16 16"><path fill="#586d87" d="M2.027 0h9l3 3v2h-1V3.491L10.518 1H3.027v4h-1V0zM2 6h1.741q.661 0 1.094.406T5.268 7.5q0 .455-.201.795t-.549.522T3.741 9H3v2H2V6zm4 0h1.786q.661 0 1.196.295t.844.862.308 1.344q0 .821-.308 1.384t-.839.839-1.201.277H6v-5zm5 0h3v1h-2v1h2v1h-2v2h-1V6zM3.741 8q.232 0 .379-.121t.147-.379q0-.268-.147-.384T3.741 7H3v1h.741zm4.045 2q.607 0 .978-.353T9.135 8.5q0-.732-.379-1.116T7.787 7h-.786v3h.786zm-5.759 2h1v3h10v-3h1v4h-12v-4z"/></svg>