<svg xmlns="http://www.w3.org/2000/svg" viewBox="0 0 16 16"><path fill="#586d87" d="M5.634 9.732l.589-2.482Q6 6.982 6 6.625l.009-.277.107-1.839-.357.429-.509 2.589-.902-.089.42-2.911 1.491-1.902.911-.321.036-.313q-.188-.161-.299-.388t-.112-.487q0-.464.326-.79T7.911 0t.795.326.33.79q0 .375-.219.67t-.567.402l-.009.116.804.509.848 2.152 1.616 2-.652.661-1.768-1.902-.25-.616-.116 1.455.839 3.348.232 3.804H8.785l-.446-3.491-.688-2.598h-.036l-.893 2.687-1.884 3.018-.848-.545 1.643-3.054zM3.054 12H0v-1h3.598l-.545 1zM16 11v1h-4.821l-.071-1h4.893zM0 14.991h16v1H0v-1z"/></svg>