<svg xmlns="http://www.w3.org/2000/svg" viewBox="0 0 16 16"><path fill="#586d87" d="M8 6H0q.375-1.696 1.527-3.067T4.371.781 8 0t3.634.781 2.844 2.152T16 6H9v5l-1 .357V6zm6.616-1q-.545-1.179-1.545-2.085t-2.313-1.411T7.999 1t-2.759.504-2.313 1.411T1.382 5h13.232zM14 10q0 .473-.205.888t-.571.692q1.607.223 2.777.991V16h-8v-3.429q1.411-.759 2.795-.973-.366-.277-.58-.696T10.002 10q0-.545.268-1.004t.728-.728T12.002 8t1.004.268.728.728.268 1.004zm-2-1q-.411 0-.705.29T11 10q0 .411.295.705T12 11q.42 0 .71-.295T13 10q0-.42-.29-.71T12 9zm3 4.17q-1.42-.67-3-.67-1.589 0-3 .679V15h6v-1.83z"/></svg>