<svg id="Layer_1" data-name="Layer 1" xmlns="http://www.w3.org/2000/svg" viewBox="0 0 16 16"><path fill="#586d87" d="M14,6.5a1.92,1.92,0,0,1,1,.27,2,2,0,0,1,.73.73,1.92,1.92,0,0,1,.27,1v2a1,1,0,0,1-.29.71,1,1,0,0,1-.71.29H13.73a2,2,0,0,1-.73.73,2,2,0,0,1-2,0,2,2,0,0,1-.73-.73H5.73a2,2,0,0,1-.73.73,2,2,0,0,1-2,0,2,2,0,0,1-.73-.73H1a1,1,0,0,1-.7-.29A1,1,0,0,1,0,10.5V6.81L4,3.5H8.5L12,6.5Zm1,2a1,1,0,0,0-1-1H11.7l-3.47-3h-4L1,7.39V10.5H2a2.08,2.08,0,0,1,.5-1.44A1.94,1.94,0,0,1,4,8.5a2,2,0,0,1,1,.27,2.13,2.13,0,0,1,.73.73,2,2,0,0,1,.27,1h4a2,2,0,0,1,.27-1A2.13,2.13,0,0,1,11,8.77a2,2,0,0,1,1-.27,1.89,1.89,0,0,1,1,.27,2.18,2.18,0,0,1,.75.73,1.88,1.88,0,0,1,.29,1h1Zm-11,3a1,1,0,0,0,.71-.29A1,1,0,0,0,5,10.5a1,1,0,0,0-1.7-.71.94.94,0,0,0-.3.71,1,1,0,0,0,1,1Zm8,0a1,1,0,0,0,.71-.29A1,1,0,0,0,13,10.5a1,1,0,0,0-1.7-.71.94.94,0,0,0-.3.71,1,1,0,0,0,1,1Z" /></svg>