<svg id="Layer_1" data-name="Layer 1" xmlns="http://www.w3.org/2000/svg" viewBox="0 0 20 20"><path d="M0,6.06,2,4,0,2,2,0,4,2l2-2,2,2-2,2,2,2-2,2-2-2-2,2Zm4.2,9A8.19,8.19,0,0,0,2.86,20H0a9.8,9.8,0,0,1,2.17-6.64A13.86,13.86,0,0,1,8.06,9.49a19.08,19.08,0,0,0,2.62-1.16,6.14,6.14,0,0,0,1.75-1.39,4.87,4.87,0,0,0,.93-2.14l-2.68.92L9.42,3.14l7-2.9,3.41,7L17.23,8.49,16.06,5.76a6,6,0,0,1-1.47,2.82,10.29,10.29,0,0,1-2.72,2.09,30.36,30.36,0,0,1-3.81,1.68A8.15,8.15,0,0,0,4.2,15.09ZM20,13.94l-2,2,2,2-2,2-2-2-2,2-2-2,2-2-2-2,2-2,2,2,2-2Z" fill="#e6e6e6"/></svg>