<svg xmlns="http://www.w3.org/2000/svg" viewBox="0 0 16 16"><path fill="#586d87" d="M10.045 15q.125.571.455 1H0V0h13v6.205q-.473-.134-1-.188V.999H8v5.384L5.5 4.928 3 6.383V.999H1v14h9.045zM4 1v3.714l1.5-.884 1.5.884V1H4zm8.5 14q.205 0 .353-.147T13 14.5h1q0 .411-.201.754t-.545.545T12.5 16t-.754-.201-.545-.545T11 14.5V11H7q.134-1.134.768-2.049t1.616-1.433T11.5 7q1.143 0 2.129.531t1.616 1.446.754 2.022h-4v3.5q0 .205.147.353t.353.147zm2.134-5q-.188-.518-.652-.978t-1.116-.741T11.5 8t-1.366.281-1.116.741-.652.978h6.268z"/></svg>