<svg id="Layer_1" data-name="Layer 1" xmlns="http://www.w3.org/2000/svg" viewBox="0 0 16 16"><path fill="#586d87" d="M7.26,15H1V1H3V6.38L5.5,4.93,8,6.38V1h4V6a5.36,5.36,0,0,1,1,.19V0H0V16H8.33A5.7,5.7,0,0,1,7.26,15ZM4,1H7V4.71L5.5,3.83,4,4.71Z"/><path fill="#586d87" d="M11.5,7A4.5,4.5,0,1,0,16,11.5,4.49,4.49,0,0,0,11.5,7Zm0,8A3.5,3.5,0,1,1,15,11.5,3.5,3.5,0,0,1,11.5,15Z"/><polygon fill="#586d87" points="11.75 9.18 10.75 9.18 10.75 11.78 10.75 12.22 11.75 12.64 13.36 13.32 13.75 12.4 11.75 11.55 11.75 9.18"/></svg>