<svg data-name="Layer 1" xmlns="http://www.w3.org/2000/svg" viewBox="0 0 16 16"><path d="M2.75 13.3a5.48 5.48 0 0 1-2-2A5.16 5.16 0 0 1 0 8.65V6.7a6 6 0 0 1 .88-3.18A6.49 6.49 0 0 1 6.5.36a6.49 6.49 0 0 1 5.62 3.16A6 6 0 0 1 13 6.7V7c-.13-.09-.29-.18-.47-.28a3.72 3.72 0 0 0-.53-.25 5.1 5.1 0 0 0-.81-2.59 5.31 5.31 0 0 0-2-1.88 5.41 5.41 0 0 0-2.69-.67 5.37 5.37 0 0 0-2.75.73A5.45 5.45 0 0 0 1.74 4 5.16 5.16 0 0 0 1 6.7v2a4.12 4.12 0 0 0 .61 2.2 4.42 4.42 0 0 0 1.64 1.6 4.35 4.35 0 0 0 2.25.5 4.7 4.7 0 0 0 .9 0h.09a.52.52 0 0 1 .35.14.47.47 0 0 1 .15.35.51.51 0 0 1-.11.31.56.56 0 0 1-.3.17A5.35 5.35 0 0 1 5.5 14a5.46 5.46 0 0 1-2.75-.7zm5.56 1.12l1.24.48a7.79 7.79 0 0 1-1.93.8 8.33 8.33 0 0 1-2.12.3 8 8 0 0 1-2.24-.31 7.55 7.55 0 0 1-2-.9.42.42 0 0 1-.18-.17.48.48 0 0 1-.08-.27.49.49 0 0 1 .15-.35.48.48 0 0 1 .34-.13.58.58 0 0 1 .26.06 7 7 0 0 0 1.78.8 7.16 7.16 0 0 0 2 .28 7 7 0 0 0 2.78-.59zm1.76-8.31a.46.46 0 0 1-.19-.28 3.35 3.35 0 0 0-.68-1.31 3.53 3.53 0 0 0-4.45-.77A3.46 3.46 0 0 0 3.47 5 3.31 3.31 0 0 0 3 6.7a.45.45 0 0 1-.15.3.48.48 0 0 1-.7 0A.45.45 0 0 1 2 6.7a4.12 4.12 0 0 1 .61-2.2 4.5 4.5 0 0 1 1.64-1.6 4.45 4.45 0 0 1 2.25-.59 4.41 4.41 0 0 1 1.94.43A4.53 4.53 0 0 1 10 3.93a4.23 4.23 0 0 1 .88 1.71.45.45 0 0 1 0 .11.43.43 0 0 1-.15.33.52.52 0 0 1-.35.14.44.44 0 0 1-.31-.11zM6 11a3.72 3.72 0 0 0 .2 1 3.55 3.55 0 0 1-.73.08 3.44 3.44 0 0 1-1.75-.46 3.57 3.57 0 0 1-1.28-1.25A3.28 3.28 0 0 1 2 8.65a.45.45 0 0 1 .15-.34.46.46 0 0 1 .35-.14.46.46 0 0 1 .35.14.45.45 0 0 1 .15.34 2.41 2.41 0 0 0 .33 1.23 2.51 2.51 0 0 0 2.17 1.21A2.33 2.33 0 0 0 6 11zm2-4v-.3a1.52 1.52 0 0 0-2.25-1.27A1.43 1.43 0 0 0 5 6.7v2a.47.47 0 0 0 .15.3.51.51 0 0 0 .7 0A.47.47 0 0 0 6 8.65V6.7a.45.45 0 0 1 .15-.34.48.48 0 0 1 .7 0A.45.45 0 0 1 7 6.7v1.15a4.17 4.17 0 0 0-.61 1A4.31 4.31 0 0 0 6 10a1.62 1.62 0 0 1-.54.1 1.54 1.54 0 0 1-1.3-.73A1.44 1.44 0 0 1 4 8.65V6.7a2.35 2.35 0 0 1 .33-1.22A2.55 2.55 0 0 1 6.5 4.26a2.48 2.48 0 0 1 2.08 1.09A2.38 2.38 0 0 1 9 6.47 3.81 3.81 0 0 0 8 7zm7.29 9l-2.69-2.66a3.63 3.63 0 0 1-1 .5 3.5 3.5 0 0 1-1.1.16 3.44 3.44 0 0 1-1.75-.46 3.49 3.49 0 0 1-1.28-1.25 3.33 3.33 0 0 1 0-3.41 3.49 3.49 0 0 1 1.28-1.23 3.52 3.52 0 0 1 4.78 1.25 3.34 3.34 0 0 1 .29 2.79 3.43 3.43 0 0 1-.52 1l2.7 2.6zm-7-4.14a2.53 2.53 0 0 0 .92.89 2.6 2.6 0 0 0 2.5 0 2.53 2.53 0 0 0 .92-.89A2.39 2.39 0 0 0 13 10.6a2.35 2.35 0 0 0-.33-1.22 2.53 2.53 0 0 0-.92-.89 2.6 2.6 0 0 0-2.5 0 2.53 2.53 0 0 0-.92.89A2.35 2.35 0 0 0 8 10.6a2.39 2.39 0 0 0 .33 1.23z" fill="#586d87"/></svg>