<svg xmlns="http://www.w3.org/2000/svg" viewBox="0 0 16 16"><path fill="#586d87" d="M7.259 15q.446.545 1.071 1H0V0h13v6.205q-.473-.134-1-.188V.999H8v5.384L5.5 4.928 3 6.383V.999H1v14h6.259zM4 1v3.714l1.5-.884 1.5.884V1H4zm7.5 6q1.223 0 2.254.607t1.638 1.638.607 2.254-.607 2.254-1.638 1.638-2.254.607-2.254-.607-1.638-1.638-.607-2.254.607-2.254 1.638-1.638T11.5 7zM8 11.5q0 .58.183 1.112t.513.978l4.893-4.893q-.446-.33-.978-.513t-1.112-.183q-.946 0-1.75.473T8.472 9.751t-.473 1.75zm3.5 3.5q.946 0 1.75-.473t1.277-1.277T15 11.5q0-.58-.183-1.112t-.513-.978l-4.893 4.893q.446.33.978.513t1.112.183z"/></svg>