<svg xmlns="http://www.w3.org/2000/svg" viewBox="0 0 16 16"><path fill="#586d87" d="M7.259 15q.446.545 1.071 1H0V0h13v6.205q-.473-.134-1-.188V.999H8v5.384L5.5 4.928 3 6.383V.999H1v14h6.259zM4 1v3.714l1.5-.884 1.5.884V1H4zm10.955 11.071q-.134.786-.607 1.455l.652.839-.625.616-.839-.643q-.661.482-1.464.616l-.134 1.045h-.875l-.143-1.045q-.804-.134-1.464-.616l-.83.652-.616-.616.643-.848q-.473-.652-.607-1.455l-1.045-.143v-.875l1.045-.134q.152-.83.616-1.455l-.643-.839L8.635 8l.839.652q.661-.473 1.446-.607L11.063 7h.875l.134 1.045q.786.134 1.455.607l.848-.643.616.616-.652.83q.473.661.616 1.464l1.045.134v.875l-1.045.143zM14 11.5q0-.679-.335-1.254t-.911-.911T11.5 9t-1.254.335-.911.911T9 11.5t.335 1.254.911.911T11.5 14t1.254-.335.911-.911T14 11.5z"/></svg>