<svg data-name="Layer 1" xmlns="http://www.w3.org/2000/svg" viewBox="0 0 16 16"><path d="M0 5.84l2-1.13V.36h4v2.1l2-1.13 8 4.51-.5.84-.5-.28V9h-.54a2.57 2.57 0 0 0-.46.07V5.84L8 2.46 2 5.84v3.22a3 3 0 0 0-1 .59V6.4l-.5.28zm15 5.34a2.55 2.55 0 0 0 1 .71v1a3.85 3.85 0 0 1-1.15-.51 2.72 2.72 0 0 1-.8-.86 4 4 0 0 1-1.36 1.13A3.69 3.69 0 0 1 11 13a3.82 3.82 0 0 1-1.73-.4 2.85 2.85 0 0 1-1.22-1.1 4 4 0 0 1-1.36 1.13A3.69 3.69 0 0 1 5 13a3.82 3.82 0 0 1-1.73-.4 2.85 2.85 0 0 1-1.22-1.1 3.77 3.77 0 0 1-2 1.39v-1a2.3 2.3 0 0 0 .68-.4 7.21 7.21 0 0 0 .65-.62A4.18 4.18 0 0 1 2 10.3a.91.91 0 0 1 .55-.18 2.45 2.45 0 0 0 1.35 1.7 2.58 2.58 0 0 0 1.1.25 2.4 2.4 0 0 0 1-.18 2.64 2.64 0 0 0 .7-.41c.19-.16.4-.36.65-.61A4.68 4.68 0 0 1 8 10.3a.88.88 0 0 1 .54-.18 2.45 2.45 0 0 0 1.35 1.7 2.58 2.58 0 0 0 1.11.25 2.4 2.4 0 0 0 1-.18 2.64 2.64 0 0 0 .7-.41c.19-.16.4-.36.65-.61a4.68 4.68 0 0 1 .65-.57.88.88 0 0 1 .54-.18 2.31 2.31 0 0 0 .46 1.06zm0 2.93a2.42 2.42 0 0 0 1 .7v1a3.63 3.63 0 0 1-1.15-.52 2.59 2.59 0 0 1-.8-.85 4 4 0 0 1-1.36 1.13A3.69 3.69 0 0 1 11 16a3.82 3.82 0 0 1-1.73-.4 2.85 2.85 0 0 1-1.22-1.1 4 4 0 0 1-1.36 1.1A3.69 3.69 0 0 1 5 16a3.82 3.82 0 0 1-1.73-.4 2.85 2.85 0 0 1-1.22-1.1 3.77 3.77 0 0 1-2 1.39v-1a2.54 2.54 0 0 0 .68-.4 7.45 7.45 0 0 0 .65-.63 4.63 4.63 0 0 1 .62-.63.92.92 0 0 1 .5-.23A2.53 2.53 0 0 0 5 15a2.4 2.4 0 0 0 1-.18 2.64 2.64 0 0 0 .7-.41c.19-.16.4-.37.65-.62a5.5 5.5 0 0 1 .65-.57.88.88 0 0 1 .5-.22 2.53 2.53 0 0 0 2.5 2 2.4 2.4 0 0 0 1-.18 2.64 2.64 0 0 0 .7-.41c.19-.16.4-.37.65-.62a5.5 5.5 0 0 1 .62-.57.88.88 0 0 1 .53-.22 2.35 2.35 0 0 0 .5 1.11zM3 4.15L5 3V1.33H3z" fill="#586d87"/></svg>