<svg xmlns="http://www.w3.org/2000/svg" viewBox="0 0 32 32"><path fill="#586d87" d="M0 0h22v12.054q-1.446.125-2.795.625T16.696 14H12v4h1.214Q12 20.321 12 23q0 1.554.411 3H0V0zm10 6V2H2v4h8zm10 0V2h-8v4h8zm-10 6V8H2v4h8zm10 0V8h-8v4h8zm-10 6v-4H2v4h8zm13 14q-2.446 0-4.509-1.214t-3.277-3.277T14 23t1.214-4.509 3.277-3.277T23 14t4.509 1.214 3.277 3.277T32 23t-1.214 4.509-3.277 3.277T23 32zm0-2q1.893 0 3.5-.946t2.554-2.554T30 23t-.938-3.5-2.545-2.554T22.999 16q-1.893 0-3.5.946T16.945 19.5t-.946 3.5.946 3.5 2.554 2.554 3.5.946zm-5-8h4v-4h2v4h4v2h-4v4h-2v-4h-4v-2zm-8 2v-4H2v4h8z"/></svg>