<svg xmlns="http://www.w3.org/2000/svg" viewBox="0 0 32 32"><path fill="#586d87" d="M0 0h22v12.054q-1.446.125-2.795.625T16.696 14H12v4h1.214Q12 20.321 12 23q0 1.554.411 3H0V0zm10 6V2H2v4h8zm10 0V2h-8v4h8zm-10 6V8H2v4h8zm10 0V8h-8v4h8zm-10 6v-4H2v4h8zm12 8q0-1.571.491-2.571T24 21.697q.964-.696 1.482-1.482T26 18.447q0-1.161-.786-1.857t-1.982-.696q-1 0-1.893.437t-1.446 1.045l-1.25-1.339q.732-.786 1.911-1.411t2.679-.625q1.339 0 2.429.563t1.714 1.571.625 2.313q0 2.518-2.268 4.232-.911.679-1.321 1.429t-.411 1.893h-2zm-12-2v-4H2v4h8zm13 8q-.518 0-.875-.366t-.357-.884q0-.5.366-.866t.866-.366q.518 0 .884.357t.366.875-.366.884T23 32z"/></svg>