
<svg version="1.1" id="Layer_1" xmlns="http://www.w3.org/2000/svg" xmlns:xlink="http://www.w3.org/1999/xlink" x="0px" y="0px"
	 viewBox="0 0 20 20" style="enable-background:new 0 0 20 20;" xml:space="preserve">

<path fill="#e6e6e6" d="M9.9,17.8c-4-2.7-6.6-7.2-6.8-12.1c2.5-0.2,4.8-1.2,6.6-2.9c0.8,0.7,1.7,1.3,2.7,1.8l1.4-1.5
	c-1-0.4-2-1-2.8-1.7C10.5,1,10.1,0.5,9.7,0C9.3,0.5,8.9,1,8.4,1.4C6.9,2.7,5.1,3.6,3.1,3.8c-0.3,0-0.7,0.1-1,0.1c-0.3,0-0.6,0-0.9,0
	C1.1,4.2,1.1,4.6,1.1,5c0,0.2,0,0.4,0,0.7c0.2,5.2,2.7,10,6.9,13.1c0.6,0.4,1.2,0.8,1.8,1.2c0.6-0.4,1.2-0.8,1.8-1.2
	c3.8-2.8,6.2-7.1,6.8-11.8L16,9.5C15,12.9,12.8,15.8,9.9,17.8z"/>
<polygon fill="#e6e6e6" points="7.7,7.8 6.3,9.3 9.8,12.8 11.3,11.4 18.9,3.8 17.5,2.3 9.8,10 "/>
</svg>
