
<svg version="1.1" id="Layer_1" xmlns="http://www.w3.org/2000/svg" xmlns:xlink="http://www.w3.org/1999/xlink" x="0px" y="0px"
	 viewBox="0 0 20 20" style="enable-background:new 0 0 20 20;" xml:space="preserve">

<path fill="#e6e6e6" d="M7.7,16.6C7.2,16.9,6.6,17,6,17s-1.2-0.1-1.7-0.4s-0.9-0.7-1.2-1.1C2.4,15.7,1.7,16,1,16.3l0,0V20h10v-3.7
	c-0.7-0.4-1.4-0.7-2.1-0.9C8.6,15.9,8.2,16.3,7.7,16.6z"/>
<path fill="#e6e6e6" d="M7.7,5.6C7.2,5.9,6.6,6,6,6S4.8,5.9,4.3,5.6C3.8,5.3,3.4,4.9,3.1,4.4C2.4,4.7,1.7,5,1,5.3l0,0V9h10V5.3
	C10.3,5,9.6,4.7,8.9,4.4C8.6,4.9,8.2,5.3,7.7,5.6z"/>
<polygon fill="#e6e6e6" points="13,3 13,5 17,5 17,15 13,15 13,17 19,17 19,15 19,5 19,3 "/>
<circle fill="#e6e6e6" cx="6" cy="2.5" r="2.5"/>
<circle fill="#e6e6e6" cx="6" cy="13.5" r="2.5"/>
</svg>
