
<svg version="1.1" id="Layer_1" xmlns="http://www.w3.org/2000/svg" xmlns:xlink="http://www.w3.org/1999/xlink" x="0px" y="0px"
	 viewBox="0 0 20 20" style="enable-background:new 0 0 20 20;" xml:space="preserve">

<path fill="#e6e6e6" d="M2,18V2h2v8l3-3.1l2.4,2.4l0.5,0.5L10,10V0H0v20h8.8c-0.5-0.6-0.9-1.3-1.2-2H2z"/>
<polygon fill="#e6e6e6" points="16,8 18,8 18,0 12,0 12,2 16,2 "/>
<path fill="#e6e6e6" d="M18,10v2c-0.9-1.2-2.4-2-4-2c-2.8,0-5,2.2-5,5s2.2,5,5,5c1.6,0,3.1-0.8,4-2l-1.8-1c-0.5,0.6-1.3,1-2.2,1
	c-1.7,0-3-1.3-3-3s1.3-3,3-3c1.3,0,2.4,0.8,2.8,2H14v2h4h2v-2v-4H18z"/>
</svg>
