<svg xmlns="http://www.w3.org/2000/svg" viewBox="0 0 16 16"><path fill="#586d87" d="M7.259 15q.446.545 1.071 1H0V0h13v6.205q-.473-.134-1-.188V.999H8v5.384L5.5 4.928 3 6.383V.999H1v14h6.259zM4 1v3.714l1.5-.884 1.5.884V1H4zm8 9h2.464q-.214-.58-.643-1.031t-1.031-.71T11.5 8q-.946 0-1.75.473T8.473 9.75 8 11.5t.473 1.75 1.277 1.277T11.5 15q.955 0 1.763-.478t1.272-1.272l.857.5q-.589 1.027-1.629 1.638T11.5 16t-2.254-.607-1.638-1.638-.607-2.254.607-2.254 1.638-1.638 2.254-.607q1.134 0 2.04.491T15 8.841V7.002h1v4h-4v-1z"/></svg>