<svg data-name="Layer 1" xmlns="http://www.w3.org/2000/svg" viewBox="0 0 16 16"><path d="M12 12.58L14.42 15l.58-.58L12.58 12 15 9.58 14.42 9 12 11.42 9.58 9 9 9.58 11.42 12 9 14.42l.58.58z" fill="#586d87"/><path d="M11.5 6.25H15v-3.5h-.88v1.86a7.19 7.19 0 0 0-1.53-1.9 7.09 7.09 0 0 0-2.12-1.26A6.85 6.85 0 0 0 8 1a6.81 6.81 0 0 0-3.51.94 7.08 7.08 0 0 0-2.55 2.55A6.81 6.81 0 0 0 1 8a6.81 6.81 0 0 0 .94 3.51 7.08 7.08 0 0 0 2.55 2.55A6.81 6.81 0 0 0 8 15v-.88a6 6 0 0 1-3.07-.82 6.11 6.11 0 0 1-2.23-2.23A6 6 0 0 1 1.88 8a6 6 0 0 1 .82-3.07A6.11 6.11 0 0 1 4.93 2.7 6 6 0 0 1 8 1.88a6 6 0 0 1 2.29.43 5.84 5.84 0 0 1 1.9 1.22 6.06 6.06 0 0 1 1.3 1.85h-2z" fill="#586d87"/></svg>