<svg xmlns="http://www.w3.org/2000/svg" viewBox="0 0 16 16"><path fill="#586d87" d="M15 10.5l1-1V16H0V9.312q1.732-1.107 3.741-1.696-.357-.58-.549-1.246T3 4.999q0-1.357.674-2.504T5.495.674 7.999 0q1.161 0 2.179.5t1.723 1.375.964 1.973l-.875.875q-.071-1.027-.621-1.879T9.931 1.496 7.998 1q-1.089 0-2.009.536T4.534 2.991 3.998 5q0 1.045.496 1.938T5.842 8.38t1.879.612l-.875.875q-.705-.161-1.33-.522t-1.125-.879q-1.813.473-3.393 1.42v5.116h14v-4.5zm-8 .661l6.17-6.196L16 7.795 9.812 14H6.999v-2.839zm5.455-4.081l1.42 1.411.714-.705-1.42-1.411-.714.705zM8 13h1.393l3.777-3.795-1.42-1.42L8 11.562V13z"/></svg>