<svg id="Layer_1" xmlns="http://www.w3.org/2000/svg" viewBox="0 0 16 16"><path fill="#586d87" d="M3 3v4h5V3H3zm4 3H4V4h3v2zM15.7 6.3c-.1-.2-.2-.5-.4-.7l-.6.5L12.9 8h-1V7l1.9-1.9.6-.6c-1.5-1-3.4-.8-4.7.5-1.1 1-1.4 2.6-.9 4l-3.9 3.9c-.6.6-.6 1.5 0 2.1.6.6 1.5.6 2.1 0l3.9-3.9c1.9.8 4-.2 4.8-2.1.4-.9.4-1.9 0-2.7zm-9.2 8.2c-.2.3-.7.4-1 .2s-.5-.7-.2-1.1c.1-.1.1-.2.2-.2l3.7-3.7c.1.2.3.4.5.6.2.2.4.3.6.5l-3.8 3.7zm7.9-4.8c-1.2 1.2-3.1 1.2-4.2 0s-1.2-3.1 0-4.2c.7-.8 1.8-1.1 2.8-.8l-1.9 1.9v2.1h2.1l1.9-1.9c.3 1.1 0 2.2-.7 2.9z"/><path fill="#586d87" d="M1 15V1h12v1.5h1V0H0v16h3.9v-1zM9 15v1h5v-3.5h-1V15z"/></svg>