<svg id="Layer_1" data-name="Layer 1" xmlns="http://www.w3.org/2000/svg" viewBox="0 0 20 20"><path d="M0,0,0,10h3.7L8.24,6.1a3.78,3.78,0,0,1-.08-1,3.75,3.75,0,0,1,.52-2,5.38,5.38,0,0,1,1.57-1.48,4.35,4.35,0,0,1,2.1-.5A3.85,3.85,0,0,1,14,1.48L11.65,3.71,12,5.44l1.92.33,2.27-2.14a2.62,2.62,0,0,1,.35,1.48,3.55,3.55,0,0,1-.61,2.07,4,4,0,0,1-1.48,1.4,4.37,4.37,0,0,1-2.1.49,4.77,4.77,0,0,1-1-.16L9.75,10H20V0Z" fill="#e5e5e4"/><path d="M1.5,15a1.35,1.35,0,0,1-.75-.22,1.91,1.91,0,0,1-.53-.53A1.27,1.27,0,0,1,0,13.5a1.25,1.25,0,0,1,.22-.75,2.05,2.05,0,0,1,.53-.53A1.27,1.27,0,0,1,1.5,12a1.35,1.35,0,0,1,.75.22,1.75,1.75,0,0,1,.52.53A1.26,1.26,0,0,1,3,13.5a1.19,1.19,0,0,1-.23.75,2,2,0,0,1-.52.53A1.35,1.35,0,0,1,1.5,15Z" fill="#e6e6e6"/><polygon points="5.02 11.97 20 11.97 20 14.97 5 14.97 5.02 11.97" fill="#e6e6e6"/><path d="M1.5,20a1.35,1.35,0,0,1-.75-.22,1.91,1.91,0,0,1-.53-.53A1.27,1.27,0,0,1,0,18.5a1.25,1.25,0,0,1,.22-.75,2.05,2.05,0,0,1,.53-.53A1.27,1.27,0,0,1,1.5,17a1.35,1.35,0,0,1,.75.22,1.75,1.75,0,0,1,.52.53A1.26,1.26,0,0,1,3,18.5a1.19,1.19,0,0,1-.23.75,2,2,0,0,1-.52.53A1.35,1.35,0,0,1,1.5,20Z" fill="#e6e6e6"/><polygon points="5.02 16.97 20 16.97 20 19.97 5 19.97 5.02 16.97" fill="#e6e6e6"/></svg>