<svg xmlns="http://www.w3.org/2000/svg" viewBox="0 0 16 16"><path fill="#586d87" d="M15.4 3.4c-.1-.3-.3-.6-.5-.9l-.7.8-2.6 2.5h-1.4V4.3l2.5-2.5.7-.7c-.3-.2-.6-.4-.9-.5C9.9-.4 7 .9 6 3.4 5.5 4.6 5.5 5.9 6 7L.7 12.3c-.8.7-.9 2-.1 2.8s2 .9 2.8.1l.1-.1 5.3-5.3c2.6 1 5.5-.3 6.5-2.8.6-1.1.6-2.4.1-3.6zM2.9 14.5c-.4.4-1 .4-1.4 0-.4-.4-.4-1 0-1.4L6.6 8c.2.3.4.5.6.8.3.2.5.4.8.6l-5.1 5.1zm10.7-6.4c-1.6 1.6-4.1 1.6-5.7 0S6.3 4 7.9 2.4c1-1 2.5-1.4 3.9-1.1L9.2 3.9v2.9H12l2.5-2.5c.5 1.3.1 2.8-.9 3.8z" /></svg>