<svg data-name="Layer 1" xmlns="http://www.w3.org/2000/svg" viewBox="0 0 16 16"><path d="M12.44 5.5a6.53 6.53 0 0 1 1.15 1.91A6.2 6.2 0 0 1 14 9.63a6 6 0 0 1-.88 3.18A6.49 6.49 0 0 1 7.5 16a6.49 6.49 0 0 1-5.62-3.16A6 6 0 0 1 1 9.63a6.12 6.12 0 0 1 .8-3.05A6.32 6.32 0 0 1 4 4.3a6.41 6.41 0 0 1 3-1v-1H6v-1h3v1H8v1a6.42 6.42 0 0 1 2 .47 6.33 6.33 0 0 1 1.73 1l.72-.71-.71-.68.71-.69 2.12 2.11-.7.69-.71-.69zm-2.19 8.77a5.45 5.45 0 0 0 2-1.95 5.26 5.26 0 0 0 0-5.38 5.56 5.56 0 0 0-2-2 5.46 5.46 0 0 0-2.75-.68A5.46 5.46 0 0 0 4.75 5a5.56 5.56 0 0 0-2 2 5.26 5.26 0 0 0 0 5.38 5.45 5.45 0 0 0 2 1.95A5.37 5.37 0 0 0 7.5 15a5.37 5.37 0 0 0 2.75-.73zM3.94 9.19a.58.58 0 0 1 .18.43.58.58 0 0 1-.18.42.6.6 0 0 1-.44.18.63.63 0 0 1-.62-.6.59.59 0 0 1 .19-.43A.61.61 0 0 1 3.5 9a.64.64 0 0 1 .44.19zm1.17-2.76a.58.58 0 0 1 .18.43.58.58 0 0 1-.18.42.6.6 0 0 1-.44.18.58.58 0 0 1-.43-.18.55.55 0 0 1-.19-.42.56.56 0 0 1 .19-.43.57.57 0 0 1 .43-.17.6.6 0 0 1 .44.17zm0 5.53a.54.54 0 0 1 .18.42.6.6 0 0 1-.18.43.64.64 0 0 1-.44.17.61.61 0 0 1-.43-.17.57.57 0 0 1-.19-.43.52.52 0 0 1 .19-.38.58.58 0 0 1 .43-.18.6.6 0 0 1 .44.18zm2.83 1.15a.54.54 0 0 1 .18.42.58.58 0 0 1-.18.43.6.6 0 0 1-.44.17.57.57 0 0 1-.43-.13.59.59 0 0 1-.19-.43.55.55 0 0 1 .19-.42.58.58 0 0 1 .43-.18.6.6 0 0 1 .44.14zm.06-3H7V5.24h1zm1.9-2.82a.61.61 0 0 1 .43-1 .6.6 0 0 1 .44.18.58.58 0 0 1 .18.43.58.58 0 0 1-.18.42.6.6 0 0 1-.44.18.58.58 0 0 1-.43-.21zm.87 4.71a.58.58 0 0 1 .18.43.56.56 0 0 1-.18.42.6.6 0 0 1-.44.18.58.58 0 0 1-.43-.18.57.57 0 0 1-.19-.42.59.59 0 0 1 .19-.43.61.61 0 0 1 .43-.17.64.64 0 0 1 .44.17zm.3-2.76A.61.61 0 0 1 11.5 9a.64.64 0 0 1 .44.17.58.58 0 0 1 .18.43.58.58 0 0 1-.18.42.6.6 0 0 1-.44.18.63.63 0 0 1-.62-.6.59.59 0 0 1 .19-.4z" fill="#586d87"/></svg>