<svg data-name="Layer 1" xmlns="http://www.w3.org/2000/svg" viewBox="0 0 16 16"><path d="M12.44 5.5a6.53 6.53 0 0 1 1.15 1.91A6.2 6.2 0 0 1 14 9.63a6 6 0 0 1-.88 3.18A6.49 6.49 0 0 1 7.5 16a6.49 6.49 0 0 1-5.62-3.16A6 6 0 0 1 1 9.63a6.12 6.12 0 0 1 .8-3.05A6.32 6.32 0 0 1 4 4.3a6.41 6.41 0 0 1 3-1v-1H6v-1h3v1H8v1a6.42 6.42 0 0 1 2 .47 6.33 6.33 0 0 1 1.73 1l.72-.71-.71-.68.71-.69 2.12 2.11-.7.69-.71-.69zm-2.19 8.77a5.45 5.45 0 0 0 2-1.95 5.26 5.26 0 0 0 0-5.38 5.56 5.56 0 0 0-2-2 5.46 5.46 0 0 0-2.75-.68A5.46 5.46 0 0 0 4.75 5a5.56 5.56 0 0 0-2 2 5.26 5.26 0 0 0 0 5.38 5.45 5.45 0 0 0 2 1.95A5.37 5.37 0 0 0 7.5 15a5.37 5.37 0 0 0 2.75-.73zm-1-7.6a3.57 3.57 0 0 1 1.28 1.25 3.35 3.35 0 0 1 0 3.42 3.54 3.54 0 0 1-3 1.7 3.54 3.54 0 0 1-3-1.7 3.35 3.35 0 0 1 0-3.42 3.55 3.55 0 0 1 4.72-1.25zm-.5 5.07a2.46 2.46 0 0 0 .92-.89A2.35 2.35 0 0 0 10 9.63a2.36 2.36 0 0 0-1.25-2.11 2.53 2.53 0 0 0-2.5 0A2.36 2.36 0 0 0 5 9.63a2.35 2.35 0 0 0 .33 1.22 2.55 2.55 0 0 0 2.17 1.22 2.46 2.46 0 0 0 1.25-.33zm-.5-3.38a1.58 1.58 0 1 1-.75-.19 1.47 1.47 0 0 1 .75.19zm-.31 1.69a.58.58 0 0 0 .18-.42.58.58 0 0 0-.18-.43.64.64 0 0 0-.44-.2.61.61 0 0 0-.43.17.57.57 0 0 0 0 .85.58.58 0 0 0 .43.18.6.6 0 0 0 .44-.15z" fill="#586d87"/></svg>