<svg xmlns="http://www.w3.org/2000/svg" viewBox="0 0 16 16"><path d="M14.8 9.1c-.2 1.1-.6 2.1-1.2 2.9l.5 1.2-.8.8-1.3-.4c-.9.6-1.9 1-2.9 1.2L8.6 16H7.4l-.5-1.2c-1.1-.2-2.1-.6-2.9-1.2l-1.2.5-.8-.8.4-1.3c-.6-.9-1-1.9-1.2-2.9L0 8.6V7.4l1.2-.5c.2-1 .6-2.1 1.2-2.9l-.5-1.2.8-.8 1.3.4c.9-.6 1.9-1 2.9-1.2L7.4 0h1.1L9 1.2c1.1.2 2.1.6 2.9 1.2l1.2-.5.8.8-.3 1.3c.6.9 1 1.9 1.2 2.9l1.2.5v1.1l-1.2.6zm-3.9 3.8c.9-.5 1.6-1.2 2.1-2.1 1-1.8 1-4 0-5.7-.5-.9-1.2-1.6-2.1-2.1-1.8-1-4-1-5.7 0-.9.6-1.6 1.3-2.1 2.1-1 1.8-1 4 0 5.7.5.9 1.2 1.6 2.1 2.1 1.7 1.1 3.9 1.1 5.7 0zM9.7 5c.5.3 1 .7 1.3 1.2.6 1.1.6 2.4 0 3.4-.3.5-.7.9-1.2 1.2-1.1.6-2.4.6-3.4 0-.6-.1-1.1-.6-1.4-1.1-.6-1-.6-2.4 0-3.4.3-.5.8-1 1.3-1.3 1-.6 2.4-.6 3.4 0zm-.6 5c.4-.2.7-.5.9-.8.4-.7.4-1.6 0-2.3-.2-.4-.5-.7-.9-.9-.7-.4-1.5-.4-2.3 0-.3.2-.6.5-.8.9-.4.7-.4 1.5 0 2.2.2.4.5.7.9.9.7.4 1.5.4 2.2 0z" fill="#586d87"/></svg>