<svg data-name="Layer 1" xmlns="http://www.w3.org/2000/svg" viewBox="0 0 16 16"><path d="M7.5 15l-.5-.3c-2.9-1.4-6-3.3-4.7-6.5 2-3.2 1-4.5.4-5.3l.5-.8C4.6 2.8 6.7 1.9 8 1V0h-.3l-.1.1c-1.1.8-3.1 1.7-4.2 1L2.9.9 1.4 3l.3.3s1.8 1.1-.3 4.5c-1.8 4.5 3.3 6.9 5.2 7.8l.6.3.1.1h.2m1-1l.5-.3c2.9-1.4 6-3.3 4.7-6.5-2-3.2-1-4.5-.4-5.3l-.6-.8C11.4 2.8 9.3 1.9 8 1V0h.3l.1.1c1.1.8 3.1 1.7 4.2 1l.4-.2L14.6 3l-.3.3s-1.8 1.1.3 4.5c1.8 4.5-3.3 6.9-5.2 7.8l-.6.3-.1.1h-.2" fill="#586d87"/><path fill="#586d87" d="M7.4 15h1.1v1H7.4zM8 9a2.5 2.5 0 1 1 2.5-2.5A2.48 2.48 0 0 1 8 9zm0-4a1.54 1.54 0 0 0-1.5 1.5 1.5 1.5 0 0 0 3 0A1.54 1.54 0 0 0 8 5z"/></svg>