
<svg version="1.1" id="Layer_1" xmlns="http://www.w3.org/2000/svg" xmlns:xlink="http://www.w3.org/1999/xlink" x="0px" y="0px"
	 viewBox="0 0 20 20" style="enable-background:new 0 0 20 20;" xml:space="preserve">

<polygon fill="#e6e6e6" points="8,13 8,11 2,11 2,2 18,2 18,11 20,11 20,0 0,0 0,13 "/>
<path fill="#e6e6e6" d="M18,16l-3-2h-5c-0.6,0-1,0.4-1,1c0,0.6,0.4,1,1,1h2v2H9.3l-5-2.8c-0.5-0.3-1.1-0.2-1.4,0.3
	c-0.3,0.5-0.2,1.1,0.3,1.4c0,0,0,0,0.1,0L7,19l1.7,1H15l3-1v1h2v-6h-2V16z"/>
<circle fill="#e6e6e6" cx="15.5" cy="6.5" r="1.5"/>
<circle fill="#e6e6e6" cx="4.5" cy="6.5" r="1.5"/>
<ellipse fill="#e6e6e6" cx="10" cy="6.5" rx="2" ry="2.5"/>
</svg>
