<svg id="Layer_1" data-name="Layer 1" xmlns="http://www.w3.org/2000/svg" viewBox="0 0 16 16"><polygon points="16 15 16 14 15 14 15 8 16 8 16 7 14 7 14 15 16 15" fill="#586d87"/><path d="M3.5,8V7H3A2,2,0,0,0,1,5V3A2,2,0,0,0,3,1h7a2,2,0,0,0,2,2V6h1V0H0V8ZM12,1V2a.94.94,0,0,1-1-1ZM1,1H2A.94.94,0,0,1,1,2ZM1,6A.94.94,0,0,1,2,7H1Z" fill="#586d87"/><path d="M2.2,9.7A3,3,0,0,0,2.9,11,15.37,15.37,0,0,0,7,13a17.83,17.83,0,0,0,4,0,14.16,14.16,0,0,0,2-.4v1a14.92,14.92,0,0,1-1.9.4c-.2,0-1.4.1-2.4.1A8.71,8.71,0,0,1,6.8,14s-3.3-1.1-4.5-2.3c-.9-.9-1-1.6-.9-2Z" fill="#586d87"/><path d="M5.1,4.5c0-.2-.1-.3-.1-.6A1.54,1.54,0,0,1,6.5,2.4,1.54,1.54,0,0,1,8,3.9a1.27,1.27,0,0,1-.1.6l.9.3A2,2,0,0,0,9,3.9,2.48,2.48,0,0,0,6.5,1.4,2.54,2.54,0,0,0,4,3.9,2,2,0,0,0,4.3,5Z" fill="#586d87"/><path d="M13,7.9a1,1,0,0,1-.64-.22,6.75,6.75,0,0,0-2.16-1.54,29.94,29.94,0,0,0-3.77-1A2,2,0,0,0,4.2,6.67C3.92,8.16,4.64,8.87,5.34,9a4.58,4.58,0,0,0,1,.07,3,3,0,0,1,.8.06A19,19,0,0,1,9,10.84l.71-.71A18.61,18.61,0,0,0,7.61,8.27,2.92,2.92,0,0,0,6.34,8.1a4.48,4.48,0,0,1-.78,0c-.36-.08-.51-.54-.38-1.2s.72-.71,1.22-.69a35.27,35.27,0,0,1,3.48.91,6,6,0,0,1,1.78,1.3A2,2,0,0,0,13,8.9Z" fill="#586d87"/></svg>