<svg xmlns="http://www.w3.org/2000/svg" viewBox="0 0 16 16"><path fill="#586d87" d="M1 8q0 1.902.942 3.509t2.549 2.549T8 15v1q-2.17 0-4.009-1.076t-2.915-2.915T0 8q0-1.482.513-2.826t1.446-2.415T4.124 1H1.999V0h4v4h-1V1.723q-1.205.554-2.107 1.491T1.495 5.379.999 8zm15 0q0 1.482-.513 2.826t-1.446 2.415T11.876 15h2.125v1h-4v-4h1v2.277q1.205-.554 2.107-1.491t1.397-2.165T15.001 8q0-1.902-.942-3.509T11.51 1.942 8.001 1V0q2.17 0 4.009 1.076t2.915 2.915T16.001 8zm-5 3.714l-3-3-3 3L4.286 11l3-3-3-3L5 4.286l3 3 3-3 .714.714-3 3 3 3-.714.714z"/></svg>