
<svg version="1.1" id="Layer_1" xmlns="http://www.w3.org/2000/svg" xmlns:xlink="http://www.w3.org/1999/xlink" x="0px" y="0px"
	 viewBox="0 0 20 20" style="enable-background:new 0 0 20 20;" xml:space="preserve">

<path fill="#e6e6e6" d="M10.4,7.3l3.1-3.1c-0.2-0.4-0.3-0.8-0.3-1.3c0-0.5,0.1-0.9,0.3-1.3s0.5-0.8,0.9-1s0.8-0.5,1.2-0.6l0.5,0.8
	l-1,1.9l0.5,1.1l1.2-0.1l1-1.7l1-0.3c0.2,0.4,0.2,0.8,0.2,1.2c0,0.5-0.1,1-0.4,1.5c-0.3,0.5-0.6,0.8-1.1,1.1c-0.5,0.3-1,0.4-1.5,0.4
	c-0.1,0-0.1,0-0.2,0l-2.8,2.8l-1.4-1.4L11.1,8L10.4,7.3L10.4,7.3z M18.2,15.6c0.2,0.2,0.3,0.4,0.4,0.7c0.1,0.2,0.2,0.5,0.2,0.8
	c0,0.4-0.1,0.7-0.3,1c-0.2,0.3-0.4,0.5-0.7,0.7c-0.3,0.2-0.6,0.3-1,0.3c-0.3,0-0.5-0.1-0.8-0.2c-0.2-0.1-0.5-0.2-0.7-0.4l-6.6-6.6
	l0.7-0.7l-8-8L0.9,1.6l0.5-0.5l1.5,0.6l8,8L11.6,9L18.2,15.6L18.2,15.6z M8.5,13.5l-2.3,2.3c0.2,0.4,0.3,0.8,0.3,1.3
	c0,0.5-0.1,0.9-0.3,1.3c-0.2,0.4-0.5,0.8-0.9,1C5,19.7,4.5,19.9,4.1,20l-0.5-0.8l1-1.9L4,16.2l-1.2,0.1l-1,1.7l-1,0.3
	c-0.2-0.4-0.2-0.8-0.2-1.2c0-0.5,0.1-1,0.4-1.5c0.3-0.5,0.6-0.8,1.1-1.1c0.5-0.3,1-0.4,1.5-0.4h0.2l3.4-3.4l0.7,0.7l-0.7,0.7
	L8.5,13.5L8.5,13.5z"/>
</svg>
