<svg data-name="Layer 1" xmlns="http://www.w3.org/2000/svg" viewBox="0 0 16 16"><path d="M1.83 15.91l.17-.73 1.64-1 .09-1.48-1.34-.65L.72 13 0 12.78a2.33 2.33 0 0 1 .5-1 2.51 2.51 0 0 1 .87-.68 2.43 2.43 0 0 1 1.1-.25h.15L5.54 8l.82.81-1.95 1.93a.56.56 0 0 0-.17.41.52.52 0 0 0 .17.4.54.54 0 0 0 .4.17.57.57 0 0 0 .42-.17l1.13-1.12.83.8-2.1 2.08v.09a2.51 2.51 0 0 1-.36 1.34A2.57 2.57 0 0 1 2.51 16a2.65 2.65 0 0 1-.68-.09zM12.81 15a1.6 1.6 0 0 1-.57-.37l-5.06-5L8 8.82 1.47 2.36l-.42-1.22 1.23.41L8.82 8l.82-.81 5.06 5a1.91 1.91 0 0 1 .38.56 1.69 1.69 0 0 1 .13.66 1.64 1.64 0 0 1-.13.65 1.79 1.79 0 0 1-.38.56 1.6 1.6 0 0 1-.57.37 1.74 1.74 0 0 1-1.32 0zm-2.37-8.61l1.15-1.14a.56.56 0 0 0 0-.8.54.54 0 0 0-.4-.17.57.57 0 0 0-.42.17l-2 1.94L8 5.57l2.92-2.88V2.6a2.57 2.57 0 0 1 .36-1.35 2.62 2.62 0 0 1 1-.92A2.59 2.59 0 0 1 13.49 0a2.65 2.65 0 0 1 .68.09L14 .82l-1.64 1-.09 1.48 1.34.65L15.28 3l.72.19a2.33 2.33 0 0 1-.5 1 2.51 2.51 0 0 1-.87.68 2.43 2.43 0 0 1-1.1.25h-.15l-2.11 2.07z" fill="#5a6d88"/></svg>