<svg xmlns="http://www.w3.org/2000/svg" viewBox="0 0 16 16"><path fill="#586d87" d="M15 2.5q0 .295-.112.571t-.326.491l-2.375 2.375 2.018 6.464-1.509 1.509L9.5 8.624l-2.545 2.545.589 2.946-.893.884-1.714-2.241-1.241.804-.625-.634-.634-.625.804-1.241L1 9.348l.884-.893 2.946.589 2.545-2.545-5.286-3.196 1.509-1.509 6.464 2.018 2.375-2.375q.214-.214.496-.326t.576-.112q.616 0 1.054.438.214.214.326.491t.112.571zm-1.152.357Q14 2.705 14 2.5q0-.196-.152-.348T13.5 2q-.205 0-.357.152l-2.821 2.83-6.366-2.125-.259.25L9.01 6.286 5.305 9.991 4.126 9.75 2.965 9.5l-.134.134.911.661.786.589-.875 1.223.134.107.107.134 1.223-.875.589.786.661.911.134-.134-.25-1.161-.241-1.179L9.706 7l3.188 5.304.25-.259-2.125-6.357 2.83-2.83z"/></svg>