
<svg version="1.1" id="Layer_1" xmlns="http://www.w3.org/2000/svg" xmlns:xlink="http://www.w3.org/1999/xlink" x="0px" y="0px"
	 viewBox="0 0 20 20" style="enable-background:new 0 0 20 20;" xml:space="preserve">
<rect x="8" y="4" fill="#e6e6e6" width="8" height="2"/>
<path fill="#e6e6e6" d="M11.5,9.4c-2-1.9-5.1-1.9-7.1,0c-1.7,1.7-1.9,4.3-0.6,6.3l-2.9,2.9L2.4,20l2.9-2.9c2.3,1.5,5.4,0.9,6.9-1.5
	C13.5,13.7,13.2,11.1,11.5,9.4z M10.1,15.1L10.1,15.1c-1.2,1.2-3.1,1.2-4.2,0s-1.2-3.1,0-4.2c1.2-1.2,3.1-1.2,4.2,0
	C11.3,12,11.3,13.9,10.1,15.1C10.1,15,10.1,15,10.1,15.1z"/>
<path fill="#e6e6e6" d="M16,10V8h-3c0.6,0.6,1,1.3,1.4,2H16z"/>
<polygon fill="#e6e6e6" points="16,0 4,0 4,7 6,7 6,2 15,2 18,5 18,18 12,18 12,20 20,20 20,4 "/>
</svg>
