<svg xmlns="http://www.w3.org/2000/svg" viewBox="0 0 16 16"><path fill="#586d87" d="M2 0h9l3 3v2h-1V3.491L10.491 1H3v4H2V0zM1 6h1.786q.661 0 1.17.295t.799.862.29 1.344q0 1.232-.621 1.866t-1.638.634H1v-5zm7 5q-.554 0-1.031-.281t-.768-.844-.29-1.375q0-.768.29-1.335t.772-.866T8 6t1.027.299.772.866.29 1.335q0 .813-.29 1.375t-.768.844T8 11zm5.08 0q-.589 0-1.071-.277t-.768-.844-.286-1.379q0-.768.29-1.335t.772-.866T13.08 6q1.045 0 1.661.786l-.768.661q-.161-.205-.397-.326T13.08 7q-.295 0-.549.165t-.415.504-.161.83q0 .786.321 1.143t.804.357q.304 0 .567-.174t.433-.478l.777.607q-.616 1.045-1.777 1.045zM2.786 10q.589 0 .924-.348T4.045 8.5q0-.741-.344-1.121T2.786 7H2v3h.786zM8 10q.438 0 .763-.362T9.089 8.5q0-.482-.161-.821t-.411-.509T7.999 7t-.518.17-.411.509-.161.821q0 .777.326 1.138t.763.362zm-6 2h1v3h10v-3h1v4H2v-4z"/></svg>