<svg data-name="Layer 1" xmlns="http://www.w3.org/2000/svg" viewBox="0 0 16 16"><path d="M16 9.13v2.24H0v-2l3-1a6.32 6.32 0 0 1 1-3v-3h6a5.86 5.86 0 0 1 2.83.63 4.91 4.91 0 0 1 2 1.9 5.62 5.62 0 0 1 .71 2.84v.35zm-1 .24l-.5-1v-.5a4.73 4.73 0 0 0-.57-2.35 4 4 0 0 0-1.59-1.59A4.71 4.71 0 0 0 10 3.37 6.88 6.88 0 0 0 7 4a5.33 5.33 0 0 0-2.13 1.8A5.17 5.17 0 0 0 4 8.44v.65l-3 1v.28h14zM4.82 4.65a4.39 4.39 0 0 1 1-.89A5 5 0 0 1 7 3.16H4.82zm1.51 1.21A4.8 4.8 0 0 1 8 4.75a5.45 5.45 0 0 1 2-.38 4.5 4.5 0 0 1 2.86.93l-.49.64a3.35 3.35 0 0 0-1-.57A3.81 3.81 0 0 0 10 5.16a4.5 4.5 0 0 0-1.72.33 3.81 3.81 0 0 0-1.38.94 3.76 3.76 0 0 0-.84 1.43l-.74-.32a4.5 4.5 0 0 1 1.01-1.68zm8.14 6.24l-.28 1.44-.2 1-8.19-1.66.2-1 7.21 1.44.29-1.44z" fill="#586d87"/></svg>