<svg data-name="Layer 1" xmlns="http://www.w3.org/2000/svg" viewBox="0 0 16 16"><path d="M14 3v2h-1V3.49L10.49 1H3v4H2V0h9zM2 11l1.52-2.5L2 6h1.18l.93 1.53L5 6h1.21L4.7 8.5 6.21 11H5l-.89-1.53L3.18 11zm11 1h1v4H2v-4h1v3h10zM8 6v4h2v1H7V6zm5.63 2.58a1.3 1.3 0 0 1 .37 1 1.28 1.28 0 0 1-.48 1.05 1.9 1.9 0 0 1-1.24.39 2.75 2.75 0 0 1-.75-.09 2.64 2.64 0 0 1-.66-.32l.43-.88a2.83 2.83 0 0 0 .51.24 1.49 1.49 0 0 0 .47.07.77.77 0 0 0 .51-.14.44.44 0 0 0 .21-.35.39.39 0 0 0-.19-.33 2.29 2.29 0 0 0-.56-.22 2.59 2.59 0 0 1-1-.53 1.26 1.26 0 0 1-.38-1 1.46 1.46 0 0 1 .2-.76 1.48 1.48 0 0 1 .58-.53 1.83 1.83 0 0 1 .83-.18 2.44 2.44 0 0 1 1.4.46l-.42.84A2.85 2.85 0 0 0 13 7a1.43 1.43 0 0 0-.46-.07.68.68 0 0 0-.44.13.43.43 0 0 0-.18.36.47.47 0 0 0 .19.37 1.72 1.72 0 0 0 .56.26 2.73 2.73 0 0 1 .96.53z" fill="#586d87"/></svg>