<svg xmlns="http://www.w3.org/2000/svg" viewBox="0 0 16 16"><path fill="#586d87" d="M14 3v2h-1V3.491L10.491 1H3v4H2V0h9l3 3zm-1.357 5.054q.616.196.987.527t.371 1.027q0 .661-.478 1.054t-1.246.393q-.438 0-.746-.094t-.665-.317l.438-.884q.286.17.509.241t.464.071q.33 0 .518-.138t.188-.379q0-.196-.192-.33t-.54-.25q-.607-.196-.991-.531t-.384-1.022q0-.429.21-.763t.576-.522.821-.188q.723 0 1.393.464l-.411.839q-.277-.17-.496-.246t-.46-.076q-.268 0-.442.134t-.174.357.192.371.558.263zM2 11l1.518-2.5L2 6h1.179l.929 1.527L5.037 6h1.179L4.698 8.5 6.216 11H5.037l-.929-1.527L3.179 11H2zm6-5v4h2v1H7V6h1zm5 6h1v4H2v-4h1v3h10v-3z"/></svg>